<svg width="162" height="162" viewBox="0 0 162 162" fill="none" xmlns="http://www.w3.org/2000/svg">
<g style="mix-blend-mode:luminosity" opacity="0.09">
<rect width="162" height="162" rx="20" fill="url(#paint0_radial_186_2)"/>
<path d="M66.9741 37.8702C66.9741 37.8702 66.065 26.0278 70.5186 23.1986C72.1171 22.1896 74.1611 23.7481 73.6995 25.1127C73.238 26.4774 68.8323 33.8761 68.7943 38.7913L66.9741 37.8702Z" fill="#0F4400"/>
<path d="M69.4257 31.3727C63.4655 29.6723 59.2976 25.6183 52.8539 31.9721C45.9967 38.7295 52.6701 53.6848 55.0638 55.8027C57.4574 57.9207 60.0349 55.6389 62.4286 57.4311C64.8222 59.2234 67.2239 61.665 75.6856 54.8337C84.1473 48.0024 84.401 37.2509 81.4559 34.4776C78.5108 31.7043 75.1341 33.0011 69.4257 31.3727Z" fill="#0F4400"/>
<path d="M68.5286 27.4424C68.5286 27.4424 76.7765 22.5812 81.4899 31.4185C81.4899 31.4185 71.7694 37.3087 68.5286 27.4424Z" fill="#0F4400"/>
<path d="M55.3815 46.6077C54.6502 44.268 54.3445 41.9823 54.2086 39.5447C54.2025 39.3472 54.1266 39.1583 53.9943 39.0115C53.8621 38.8647 53.6821 38.7696 53.4863 38.743C53.2905 38.7164 53.0916 38.76 52.925 38.8662C52.7584 38.9724 52.6348 39.1342 52.5762 39.3229C51.739 41.6266 51.8449 44.1901 52.3764 46.5598C52.776 48.396 53.1537 51.1413 55.2136 51.7227C55.3751 51.7647 55.5458 51.7534 55.7003 51.6904C55.8548 51.6273 55.9848 51.516 56.0708 51.3731C56.9959 49.7726 55.889 48.2282 55.3815 46.6077Z" fill="#0F4400"/>
<path d="M58.894 53.2131C58.7401 52.8855 58.4185 52.7156 58.1327 52.5178L57.4754 52.0683C56.6502 51.5008 55.6172 52.8175 56.3964 53.4669L57.0078 53.9764C57.2736 54.1982 57.5273 54.4699 57.881 54.5299C58.0517 54.5703 58.2305 54.5605 58.3958 54.5018C58.5611 54.443 58.7059 54.3378 58.8129 54.1988C58.9199 54.0597 58.9844 53.8928 58.9988 53.7179C59.0132 53.5431 58.9768 53.3678 58.894 53.2131Z" fill="#0F4400"/>
<path d="M80.1013 36.0302C79.7017 35.193 78.6267 35.8464 78.7346 36.6077C78.9344 38.0982 79.384 39.6707 79.334 41.1792C79.2881 42.5079 78.351 43.5628 77.8954 44.7757C77.318 46.3121 79.5118 46.9176 80.341 45.8066C82.7327 42.6018 81.6897 39.3949 80.1013 36.0302Z" fill="#0F4400"/>
<path d="M76.0015 49.4087C75.9651 49.4816 75.9752 49.4613 76.0015 49.4087V49.4087Z" fill="#0F4400"/>
<path d="M77.8495 48.4578C77.7908 48.2594 77.6574 48.0914 77.4774 47.9893C77.2974 47.8872 77.0849 47.8589 76.8844 47.9103C76.4349 48.0322 76.275 48.4538 76.337 48.8734C76.325 48.7895 76.317 48.8634 76.315 48.8994L76.305 48.9333C76.305 48.9473 76.291 48.9593 76.275 48.9913C76.3969 48.8434 76.0193 49.3349 76.1152 49.1911C76.0932 49.225 76.0333 49.3429 76.0013 49.4089C75.7895 49.8624 76.0352 50.5897 76.6466 50.5258C76.8835 50.5129 77.1117 50.4328 77.3046 50.2947C77.4975 50.1567 77.647 49.9665 77.7356 49.7465C77.9223 49.3433 77.9626 48.8876 77.8495 48.4578Z" fill="#0F4400"/>
<path d="M79.292 88.9839C81.4259 86.3365 82.6348 82.7121 81.6098 79.4693C81.2461 78.3184 80.6107 77.2554 80.369 76.0726C80.2051 75.2953 80.2131 74.4921 80.1292 73.7029C79.9294 71.7568 79.0842 69.7907 77.4938 68.6538C76.4388 67.9006 75.1481 67.5669 73.8973 67.2552L69.6914 66.1863C67.1599 65.5429 64.3187 64.9375 62.0649 66.2582C60.4025 67.2312 59.4255 69.0954 59.0319 70.9816C58.6383 72.8677 58.7402 74.8158 58.7422 76.7439C58.7422 78.5621 58.6583 80.4203 59.1917 82.1606C59.6473 83.6432 60.5284 84.9579 61.4995 86.1567C63.7672 88.9799 67.06 92.1648 70.4427 93.6194C73.7814 95.062 77.3639 91.3736 79.292 88.9839Z" fill="#0F4400"/>
<path d="M51.9009 90.2251C50.6121 88.4868 49.8889 86.4049 49.1855 84.3609C48.3424 81.9093 47.5372 79.0561 48.9118 76.8602C49.4972 75.9231 50.4343 75.2118 50.8439 74.1848C51.2435 73.1958 51.0737 72.0749 51.3115 71.0379C51.821 68.8281 53.9848 67.4594 56.0088 66.4424C57.6313 65.6272 59.4655 64.862 61.2038 65.3515C63.3257 65.9509 64.5705 68.2447 64.7543 70.4405C64.8682 71.7892 64.7323 73.3177 65.6474 74.3147C66.3068 75.034 67.3298 75.2538 68.2269 75.6354C70.111 76.4346 71.6955 78.5106 71.0401 80.4507C70.6405 81.6615 69.4417 82.5586 69.2918 83.8274C69.142 85.0961 70.0491 86.2031 71.0241 86.9983C71.9992 87.7935 73.1341 88.4788 73.7435 89.5797C74.5707 91.0783 74.1651 93.0463 73.0841 94.375C72.0032 95.7037 70.3648 96.467 68.7064 96.8866C62.8542 98.3571 55.4774 95.0444 51.9009 90.2251Z" fill="#0F4400"/>
<path d="M63.8012 98.0191C61.9556 97.9352 60.1429 97.4998 58.4605 96.7364C56.7042 95.9372 55.0478 94.7124 54.2426 92.9581C53.4374 91.2038 53.7191 88.8701 55.2416 87.6952C55.5793 87.4212 55.9856 87.245 56.4165 87.1857C57.8151 87.0419 58.8541 88.4825 60.2127 88.7842C63.1539 89.4495 65.2838 84.7721 68.2369 85.3875C69.4357 85.6333 70.3448 86.7302 71.5556 86.8461C72.7664 86.962 73.8873 86.0309 75.1161 85.8471C77.324 85.5114 79.2501 87.8731 79.1222 90.1029C78.9364 93.3297 76.6746 94.6344 74.0512 95.5635C70.6405 96.7743 67.5336 98.189 63.8012 98.0191Z" fill="#0F4400"/>
<path d="M57.9789 82.7404C55.2696 79.0041 56.2866 72.994 58.3366 69.2337C58.4425 69.0339 58.1128 68.858 57.9969 69.0458C55.809 72.6084 53.7391 79.9072 57.5274 83.214C57.8211 83.4777 58.1887 83.0381 57.9789 82.7404Z" fill="#0F4400"/>
<path d="M57.843 83.7152C57.5413 83.2897 57.3196 83.2497 56.83 83.0739C56.0764 82.808 55.36 82.4467 54.6981 81.9989C53.4114 81.1118 52.4883 79.919 52.1946 78.3605C52.1797 78.2931 52.1395 78.2339 52.0823 78.1952C52.0251 78.1566 51.9553 78.1413 51.8872 78.1525C51.819 78.1638 51.7578 78.2008 51.7162 78.2558C51.6745 78.3109 51.6555 78.3798 51.6631 78.4484C51.8239 79.9503 52.5358 81.3392 53.6611 82.3466C54.5622 83.1758 56.4964 84.5784 57.7491 84.1109C57.7845 84.0943 57.8157 84.0699 57.8403 84.0395C57.865 84.0092 57.8825 83.9737 57.8915 83.9357C57.9005 83.8977 57.9009 83.8581 57.8925 83.8199C57.8841 83.7818 57.8672 83.746 57.843 83.7152Z" fill="#0F4400"/>
<path d="M61.3856 77.7631C60.4944 78.7242 59.8031 79.8331 59.5254 81.1238C59.3256 82.0829 59.0439 83.4855 59.8691 84.1988C59.9216 84.2363 59.9866 84.2519 60.0504 84.2422C60.1143 84.2325 60.1718 84.1983 60.2107 84.1468C60.6683 83.4096 60.4105 82.4765 60.5124 81.6373C60.6682 80.3644 61.1005 79.1409 61.7792 78.0528C61.8176 78.0006 61.8337 77.9353 61.824 77.8712C61.8142 77.8071 61.7794 77.7496 61.7272 77.7111C61.675 77.6727 61.6097 77.6566 61.5456 77.6664C61.4816 77.6761 61.424 77.7109 61.3856 77.7631Z" fill="#0F4400"/>
<path d="M75.6716 77.0279C74.3768 74.2307 72.8124 70.88 70.165 69.1317C70.1301 69.1054 70.0904 69.0863 70.0481 69.0754C70.0058 69.0646 69.9618 69.0621 69.9185 69.0682C69.8312 69.0806 69.7524 69.1271 69.6994 69.1976C69.6464 69.2681 69.6236 69.3567 69.636 69.444C69.6483 69.5313 69.6949 69.6102 69.7654 69.6632C73.4418 72.5204 77.312 80.5645 76.0572 85.136C76.0355 85.1938 76.0353 85.2575 76.0566 85.3154C76.0779 85.3734 76.1193 85.4218 76.1733 85.4518C76.2272 85.4818 76.2902 85.4914 76.3507 85.4789C76.4111 85.4665 76.4651 85.4327 76.5028 85.3837C78.4129 83.2079 76.7265 79.3077 75.6716 77.0279Z" fill="#0F4400"/>
<path d="M72.8983 75.1955C72.5986 74.5741 71.7754 74.2844 71.2259 73.8908C70.5594 73.4126 69.9259 72.8899 69.3298 72.3263C68.9681 71.9866 68.3727 72.604 68.7304 72.9577C69.3339 73.5705 69.978 74.1419 70.6585 74.668C71.2319 75.1076 71.8733 75.7469 72.6286 75.709C72.6834 75.6987 72.7352 75.6762 72.7801 75.643C72.825 75.6098 72.8618 75.567 72.8878 75.5176C72.9137 75.4681 72.9282 75.4135 72.93 75.3577C72.9318 75.3019 72.921 75.2465 72.8983 75.1955Z" fill="#0F4400"/>
<path d="M74.5327 81.6492C73.9546 81.0826 73.3398 80.5547 72.6925 80.0687C72.4627 79.8969 72.221 80.2405 72.4308 80.4244C73.0723 80.9729 73.6733 81.5672 74.229 82.2026C74.6286 82.6622 75.0023 83.4754 75.5877 83.6752C75.6258 83.689 75.6669 83.6927 75.7069 83.6859C75.7469 83.6792 75.7845 83.6623 75.8161 83.6367C75.8476 83.6112 75.872 83.578 75.887 83.5403C75.9019 83.5026 75.9069 83.4616 75.9014 83.4214C75.8574 82.7401 74.9883 82.0967 74.5327 81.6492Z" fill="#0F4400"/>
<path d="M77.8934 74.1489C77.8065 73.1154 77.6103 72.094 77.3079 71.1019C77.2975 71.0452 77.2652 70.9949 77.2181 70.9618C77.1709 70.9287 77.1127 70.9154 77.0558 70.9248C76.999 70.9343 76.9481 70.9656 76.9142 71.0122C76.8802 71.0588 76.8659 71.1168 76.8744 71.1738C77.0164 72.1838 77.0998 73.2012 77.1241 74.2208C77.1441 75.034 76.9463 75.8812 77.218 76.6544C77.3059 76.9062 77.6356 76.8343 77.7355 76.6404C78.1212 75.9092 77.9613 74.9481 77.8934 74.1489Z" fill="#0F4400"/>
<path d="M80.2791 81.0898C80.2685 81.026 80.2329 80.969 80.1803 80.9313C80.1276 80.8936 80.0622 80.8784 79.9983 80.889C79.9345 80.8996 79.8775 80.9352 79.8398 80.9878C79.8021 81.0405 79.7869 81.1059 79.7975 81.1698C79.8665 81.7575 79.8265 82.3528 79.6797 82.926C79.5698 83.3416 79.4099 83.6593 79.4539 84.1029C79.4603 84.1384 79.4758 84.1717 79.4989 84.1995C79.522 84.2273 79.5519 84.2487 79.5856 84.2615C79.6194 84.2744 79.6559 84.2783 79.6916 84.2729C79.7274 84.2675 79.7611 84.253 79.7895 84.2308C80.6327 83.5954 80.4709 82.0029 80.2791 81.0898Z" fill="#0F4400"/>
<path d="M65.1599 94.6147C64.7423 93.8675 63.5954 93.6377 62.8781 93.2001C61.8945 92.6164 61.0029 91.8899 60.2327 91.0442C60.2176 91.0256 60.199 91.0101 60.178 90.9987C60.1569 90.9872 60.1338 90.9801 60.1099 90.9776C60.0861 90.9751 60.062 90.9773 60.039 90.9841C60.016 90.9909 59.9946 91.0022 59.976 91.0172C59.9574 91.0323 59.9419 91.0509 59.9304 91.072C59.919 91.0931 59.9118 91.1162 59.9093 91.14C59.9068 91.1639 59.909 91.188 59.9158 91.211C59.9226 91.2339 59.9339 91.2554 59.949 91.274C60.5688 92.307 61.3679 93.2211 62.3087 93.9733C62.996 94.5008 64.1069 95.372 64.9901 95.0683C65.0725 95.0304 65.1366 94.9615 65.1685 94.8765C65.2003 94.7915 65.1972 94.6974 65.1599 94.6147Z" fill="#0F4400"/>
<path d="M69.3617 89.6156C69.3453 89.5163 69.2901 89.4275 69.2082 89.3689C69.1263 89.3102 69.0245 89.2865 68.9252 89.3029C68.8258 89.3194 68.737 89.3746 68.6784 89.4565C68.6197 89.5383 68.596 89.6402 68.6125 89.7395C68.7644 91.0064 68.7543 92.2874 68.5825 93.5518C68.5226 94.0813 68.6764 94.6887 69.3178 94.4429C69.4063 94.4034 69.4829 94.3411 69.5397 94.2626C69.5965 94.184 69.6316 94.0918 69.6415 93.9953C69.7986 92.5302 69.704 91.0489 69.3617 89.6156Z" fill="#0F4400"/>
<path d="M75.0042 89.6994C74.9742 89.4736 74.5886 89.4716 74.5926 89.7114C74.6106 90.8502 74.0132 91.6934 73.168 92.3927C72.5846 92.8723 71.7174 93.162 71.3857 93.8513C71.3708 93.8898 71.3649 93.9313 71.3685 93.9724C71.3721 94.0136 71.3852 94.0534 71.4066 94.0887C71.428 94.1241 71.4573 94.154 71.4921 94.1762C71.527 94.1985 71.5665 94.2124 71.6075 94.2169C72.5646 94.2429 73.6056 93.2179 74.171 92.5006C74.495 92.116 74.7361 91.6688 74.8795 91.1868C75.0228 90.7048 75.0653 90.1985 75.0042 89.6994Z" fill="#0F4400"/>
<path d="M59.0858 105.786C46.1105 112.417 48.4662 127.245 48.0247 129.015C47.5831 130.785 46.698 132.997 48.0247 133.882C49.3514 134.767 49.7949 135.209 52.4483 135.209C55.1017 135.209 65.06 142.953 76.1211 135.209C87.1823 127.465 80.317 117.069 82.0953 114.192C83.8736 111.314 82.9804 109.102 81.8735 107.998C80.7666 106.893 78.5548 108.219 76.3429 106.671C74.1311 105.122 69.0421 100.697 59.0858 105.786Z" fill="#0F4400"/>
<path d="M59.3436 131.135C58.5444 130.903 57.8011 131.087 57.0858 130.56C56.4065 130.06 56.1507 129.347 55.7791 128.627C55.3515 127.796 54.1187 128.056 53.8689 128.877C53.0098 131.7 57.0658 135.095 59.6633 133.655C60.7302 133.071 60.4585 131.457 59.3436 131.135Z" fill="#0F4400"/>
<path d="M62.96 128.557C62.1328 128.401 61.2557 128.435 60.4165 128.401C60.1702 128.404 59.9346 128.503 59.7603 128.677C59.5859 128.851 59.4865 129.086 59.4834 129.332C59.4834 129.892 59.915 130.202 60.4165 130.266C61.1578 130.361 61.945 130.545 62.6923 130.533C63.7852 130.513 64.1069 128.775 62.96 128.557Z" fill="#0F4400"/>
<path d="M66.2428 131.94C65.9999 131.768 65.7146 131.665 65.4176 131.643C65.2498 131.643 65.08 131.659 64.9101 131.643C64.6602 131.634 64.4135 131.582 64.1808 131.491C63.5994 131.241 62.9221 131.319 62.5824 131.912C62.4339 132.182 62.3947 132.498 62.4728 132.795C62.5509 133.093 62.7403 133.349 63.002 133.511C64.001 134.05 65.5695 134.536 66.4626 133.589C66.5712 133.472 66.6527 133.334 66.7012 133.182C66.7497 133.031 66.7639 132.87 66.7429 132.712C66.7219 132.555 66.6661 132.404 66.5796 132.27C66.4932 132.137 66.3781 132.024 66.2428 131.94Z" fill="#0F4400"/>
<path d="M68.3787 129.431L67.4716 129.479C66.2928 129.539 66.2908 131.249 67.4716 131.311L68.3787 131.359C69.6175 131.423 69.6215 129.367 68.3787 129.431Z" fill="#0F4400"/>
<path d="M71.9652 131.309C71.4098 131.239 71.0101 131.665 70.5985 131.958C70.2702 132.191 69.8986 132.356 69.5056 132.444C68.4626 132.692 68.6664 134.4 69.7614 134.338C70.41 134.305 71.0465 134.15 71.6375 133.88C72.2509 133.603 73.0202 133.039 72.9303 132.282C72.9238 132.027 72.8203 131.785 72.6409 131.604C72.4615 131.423 72.2198 131.317 71.9652 131.309Z" fill="#0F4400"/>
<path d="M75.6156 127.836C75.1301 127.826 74.6606 128.01 74.199 128.144C74.0403 128.188 73.8917 128.262 73.7618 128.363C73.6318 128.464 73.5231 128.59 73.4417 128.733C73.3604 128.876 73.308 129.034 73.2876 129.198C73.2672 129.361 73.2792 129.527 73.3229 129.686C73.3666 129.844 73.4411 129.993 73.5422 130.123C73.6433 130.253 73.769 130.361 73.9122 130.443C74.0553 130.524 74.2131 130.577 74.3765 130.597C74.5398 130.617 74.7056 130.605 74.8644 130.562C75.3279 130.444 75.8214 130.362 76.235 130.118C76.46 129.978 76.6338 129.768 76.7307 129.522C76.8275 129.275 76.8423 129.003 76.7728 128.747C76.7034 128.491 76.5533 128.264 76.3449 128.1C76.1365 127.936 75.8808 127.844 75.6156 127.836Z" fill="#0F4400"/>
<path d="M66.1409 106.117C64.5944 106.267 61.963 107.516 61.6154 109.214C61.4835 109.858 61.9031 110.523 62.6144 110.517C63.3956 110.517 64.1029 110.063 64.7922 109.732C65.4816 109.4 66.2268 109.224 66.8902 108.865C68.113 108.203 67.6235 105.975 66.1409 106.117Z" fill="#0F4400"/>
<path d="M67.6234 109.13L66.4566 109.452C66.3542 109.484 66.2648 109.548 66.2012 109.635C66.1377 109.721 66.1035 109.825 66.1035 109.933C66.1035 110.04 66.1377 110.144 66.2012 110.231C66.2648 110.317 66.3542 110.381 66.4566 110.413L67.6234 110.735C67.7471 110.77 67.8774 110.776 68.0038 110.753C68.1303 110.729 68.2496 110.677 68.3523 110.599C68.455 110.522 68.5383 110.422 68.5957 110.306C68.6531 110.191 68.6829 110.064 68.6829 109.936C68.6829 109.807 68.6531 109.68 68.5957 109.565C68.5383 109.45 68.455 109.35 68.3523 109.272C68.2496 109.195 68.1303 109.142 68.0038 109.119C67.8774 109.095 67.7471 109.101 67.6234 109.136V109.13Z" fill="#0F4400"/>
<path d="M72.6046 105.536C72.133 105.488 71.6495 105.51 71.176 105.504C69.7893 105.488 69.7773 107.676 71.176 107.658C71.6495 107.658 72.133 107.676 72.6046 107.626C72.8817 107.626 73.1475 107.516 73.3435 107.32C73.5394 107.124 73.6495 106.858 73.6495 106.581C73.6495 106.304 73.5394 106.038 73.3435 105.842C73.1475 105.646 72.8817 105.536 72.6046 105.536Z" fill="#0F4400"/>
<path d="M78.1112 109.356C77.8974 109.181 77.668 109.025 77.4258 108.891C77.2776 108.774 77.1435 108.639 77.0262 108.491C76.6706 108.054 75.9173 108.122 75.5477 108.491C75.4542 108.582 75.38 108.691 75.3296 108.811C75.2791 108.931 75.2534 109.06 75.254 109.191C75.2015 109.053 75.1173 108.93 75.0083 108.831C74.8993 108.732 74.7685 108.66 74.6266 108.621C74.0451 108.455 73.3538 108.607 72.7584 108.651C72.5109 108.651 72.2736 108.749 72.0986 108.924C71.9236 109.099 71.8253 109.337 71.8253 109.584C71.8253 109.832 71.9236 110.069 72.0986 110.244C72.2736 110.419 72.5109 110.517 72.7584 110.517C73.3578 110.563 74.0451 110.717 74.6266 110.549C74.8311 110.492 75.0113 110.37 75.1395 110.2C75.2676 110.031 75.3366 109.824 75.3359 109.612C75.3878 109.741 75.4592 109.862 75.5477 109.97C75.9852 110.507 76.6826 111.057 77.4018 111.061C77.5995 111.061 77.7927 111.003 77.9572 110.893C78.1217 110.784 78.2501 110.628 78.326 110.446C78.4019 110.263 78.422 110.062 78.3838 109.868C78.3455 109.675 78.2507 109.496 78.1112 109.356Z" fill="#0F4400"/>
<path d="M78.3549 88.3926C80.331 85.941 81.4499 82.5983 80.5008 79.5872C80.1631 78.5223 79.5817 77.5373 79.3539 76.4463C79.2021 75.727 79.2081 74.9838 79.1302 74.2485C78.9304 72.4502 78.1651 70.63 76.6925 69.5771C75.7155 68.8797 74.5227 68.578 73.3598 68.2743L69.4676 67.2873C67.1239 66.6879 64.4945 66.1304 62.4085 67.3532C60.87 68.2544 59.9669 69.9787 59.6113 71.723C59.2556 73.4672 59.3396 75.2735 59.3415 77.0557C59.3415 78.7381 59.2656 80.4524 59.7591 82.0668C60.1787 83.4395 60.9959 84.6643 61.895 85.7752C63.993 88.3886 67.04 91.3357 70.1689 92.6804C73.2559 94.0151 76.5727 90.6025 78.3549 88.3926Z" fill="#9BCC5F"/>
<path d="M53.0098 89.5336C51.811 87.9351 51.1476 85.999 50.4983 84.1069C49.717 81.8391 48.9718 79.1997 50.2445 77.1657C50.786 76.3005 51.6432 75.6412 52.0308 74.6921C52.3944 73.777 52.2446 72.738 52.4643 71.779C52.9359 69.735 54.9379 68.4682 56.8121 67.5271C58.3126 66.7719 60.009 66.0646 61.6274 66.5161C63.5915 67.0656 64.7423 69.1955 64.9141 71.2255C65.018 72.4743 64.8922 73.8889 65.7393 74.822C66.3487 75.4853 67.2958 75.6911 68.137 76.0428C69.8793 76.7821 71.3458 78.7042 70.7344 80.4984C70.3568 81.6193 69.2599 82.4505 69.118 83.6234C68.9762 84.7962 69.8193 85.8212 70.7165 86.5585C71.6136 87.2958 72.6705 87.9271 73.232 88.9461C73.9972 90.3328 73.6316 92.153 72.6326 93.3798C71.6336 94.6066 70.1171 95.3159 68.5806 95.7035C63.1459 97.0662 56.3146 93.9992 53.0098 89.5336Z" fill="#C4DB6E"/>
<path d="M64.021 96.7526C62.3135 96.6742 60.6366 96.2714 59.0798 95.5657C57.4554 94.8285 55.9209 93.6916 55.1776 92.0692C54.4344 90.4468 54.6921 88.2869 56.1067 87.1999C56.4199 86.9491 56.7958 86.7888 57.1937 86.7364C58.4804 86.6025 59.4494 87.9352 60.7102 88.2209C63.4335 88.8383 65.4016 84.5086 68.1349 85.074C69.2379 85.3038 70.085 86.3168 71.2059 86.4247C72.3268 86.5326 73.3638 85.6714 74.5007 85.4976C76.5427 85.1879 78.327 87.3738 78.2071 89.4357C78.0352 92.4228 75.9433 93.6316 73.5157 94.4888C70.3508 95.6017 67.4756 96.9104 64.021 96.7526Z" fill="#E4E991"/>
<path d="M58.6343 82.6202C56.1267 79.1636 57.0678 73.603 58.966 70.1224C59.0639 69.9426 58.7662 69.7748 58.6523 69.9486C56.6262 73.2454 54.7101 79.9987 58.2147 83.0597C58.4884 83.2975 58.8281 82.8879 58.6343 82.6202Z" fill="#E4E991"/>
<path d="M58.5124 83.5154C58.2327 83.1158 58.0289 83.0858 57.5753 82.916C56.8777 82.6693 56.2148 82.3335 55.6033 81.917C54.4044 81.0958 53.5573 79.9929 53.2855 78.5523C53.2706 78.4912 53.2332 78.4381 53.1808 78.4033C53.1284 78.3686 53.0649 78.355 53.0028 78.3651C52.9408 78.3751 52.8848 78.4082 52.8461 78.4578C52.8074 78.5073 52.7888 78.5696 52.794 78.6322C52.9427 80.0222 53.6011 81.3078 54.6422 82.2407C55.4774 83.0059 57.2656 84.3047 58.4265 83.8731C58.4577 83.8572 58.485 83.8348 58.5067 83.8073C58.5283 83.7799 58.5438 83.7481 58.5519 83.7141C58.5601 83.6801 58.5608 83.6447 58.554 83.6104C58.5472 83.5761 58.533 83.5437 58.5124 83.5154Z" fill="#E4E991"/>
<path d="M61.7852 78.0087C60.9407 78.8709 60.3461 79.9461 60.0648 81.1197C59.875 82.0048 59.6193 83.3035 60.3825 83.9629C60.4064 83.9805 60.4335 83.9932 60.4623 84.0003C60.4911 84.0074 60.521 84.0088 60.5503 84.0043C60.5796 83.9999 60.6078 83.9897 60.6331 83.9743C60.6585 83.959 60.6806 83.9388 60.6982 83.9149C61.1238 83.2336 60.8781 82.3705 60.978 81.5932C61.1226 80.4154 61.5229 79.2834 62.1508 78.2765C62.1863 78.228 62.2011 78.1674 62.1919 78.108C62.1827 78.0486 62.1503 77.9953 62.1019 77.9598C62.0534 77.9243 61.9928 77.9095 61.9334 77.9187C61.874 77.9279 61.8207 77.9602 61.7852 78.0087Z" fill="#E4E991"/>
<path d="M75.0062 77.3273C73.8074 74.7419 72.3608 71.6389 69.9112 70.0205C69.8455 69.9805 69.7672 69.9665 69.6917 69.9814C69.6162 69.9962 69.549 70.0388 69.5034 70.1008C69.4578 70.1627 69.437 70.2395 69.4452 70.316C69.4533 70.3925 69.4899 70.4631 69.5476 70.514C72.9442 73.1554 76.5307 80.6001 75.3699 84.832C75.3498 84.8854 75.3497 84.9442 75.3694 84.9977C75.3891 85.0512 75.4275 85.0959 75.4774 85.1235C75.5273 85.1511 75.5854 85.1599 75.6413 85.1482C75.6971 85.1365 75.7468 85.1051 75.7814 85.0598C77.5417 83.0457 75.9812 79.4373 75.0062 77.3273Z" fill="#C4DB6E"/>
<path d="M72.4467 75.6332C72.169 75.0578 71.4077 74.788 70.8982 74.4344C70.2824 73.9904 69.6964 73.5065 69.1439 72.9858C68.8103 72.6721 68.2588 73.2415 68.5865 73.5692C69.1444 74.1369 69.7405 74.6656 70.3707 75.1517C70.9002 75.5513 71.4956 76.1507 72.1929 76.1147C72.2452 76.1065 72.2947 76.0862 72.3377 76.0554C72.3807 76.0247 72.4159 75.9843 72.4405 75.9376C72.4652 75.8908 72.4785 75.839 72.4796 75.7861C72.4807 75.7333 72.4694 75.6809 72.4467 75.6332Z" fill="#C4DB6E"/>
<path d="M73.9513 81.6034C73.4162 81.08 72.8476 80.5921 72.2489 80.1428C72.0371 79.983 71.8133 80.3007 72.0072 80.4705C72.5973 80.979 73.1502 81.5292 73.6615 82.1169C74.0292 82.5425 74.3768 83.2937 74.9183 83.4795C74.9538 83.4922 74.9919 83.4955 75.029 83.4892C75.0661 83.4829 75.101 83.4671 75.1303 83.4435C75.1596 83.4198 75.1823 83.389 75.1962 83.354C75.2102 83.3191 75.215 83.2811 75.21 83.2438C75.1781 82.6204 74.3728 82.019 73.9513 81.6034Z" fill="#C4DB6E"/>
<path d="M77.0682 74.6602C76.9886 73.704 76.8077 72.759 76.5287 71.8409C76.52 71.7879 76.4905 71.7406 76.4469 71.7093C76.4032 71.678 76.3489 71.6653 76.2959 71.6741C76.243 71.6828 76.1956 71.7123 76.1643 71.7559C76.133 71.7996 76.1204 71.8539 76.1291 71.9069C76.2595 72.8414 76.3363 73.7827 76.3589 74.7261C76.3769 75.4794 76.195 76.2626 76.4468 76.9779C76.5287 77.2117 76.8324 77.1437 76.9263 76.9659C77.272 76.2926 77.1241 75.4014 77.0682 74.6602Z" fill="#C4DB6E"/>
<path d="M79.2701 81.0857C79.2557 81.0307 79.2213 80.9832 79.1737 80.9522C79.1261 80.9213 79.0686 80.9093 79.0126 80.9186C78.9565 80.9278 78.906 80.9577 78.8708 81.0023C78.8357 81.0469 78.8184 81.103 78.8225 81.1596C78.8877 81.7038 78.8511 82.2553 78.7146 82.786C78.6127 83.1716 78.4648 83.4634 78.5048 83.875C78.5121 83.9071 78.5273 83.937 78.5489 83.9619C78.5706 83.9868 78.5981 84.006 78.629 84.0176C78.6598 84.0293 78.6931 84.0332 78.7259 84.0288C78.7586 84.0245 78.7897 84.0121 78.8165 83.9928C79.5977 83.4034 79.4479 81.9408 79.2701 81.0857Z" fill="#C4DB6E"/>
<path d="M65.2798 93.6015C64.8922 92.9102 63.8312 92.6964 63.1658 92.2928C62.2562 91.7516 61.432 91.0782 60.7202 90.2947C60.6914 90.2613 60.6507 90.2404 60.6067 90.2365C60.5628 90.2326 60.519 90.2459 60.4847 90.2737C60.4504 90.3015 60.4283 90.3416 60.423 90.3854C60.4178 90.4293 60.4298 90.4734 60.4565 90.5085C61.0305 91.4641 61.77 92.3098 62.6404 93.0061C63.2737 93.4956 64.2967 94.2928 65.1199 94.0191C65.1962 93.9846 65.2558 93.9214 65.2858 93.8432C65.3157 93.765 65.3135 93.6781 65.2798 93.6015Z" fill="#C4DB6E"/>
<path d="M69.168 88.976C69.1493 88.8874 69.0972 88.8094 69.0225 88.7583C68.9478 88.7071 68.8562 88.6868 68.7668 88.7014C68.6775 88.7161 68.5972 88.7647 68.5428 88.8371C68.4884 88.9094 68.464 89 68.4746 89.0899C68.6143 90.2626 68.6049 91.4482 68.4467 92.6185C68.3907 93.108 68.5326 93.6694 69.126 93.4417C69.2079 93.4052 69.2788 93.3478 69.3314 93.2751C69.384 93.2025 69.4166 93.1173 69.4257 93.0281C69.5712 91.6726 69.484 90.3022 69.168 88.976Z" fill="#C4DB6E"/>
<path d="M74.3888 89.052C74.3609 88.8522 74.0032 88.8422 74.0072 89.064C74.0232 90.117 73.4697 90.8982 72.6885 91.5456C72.149 91.9911 71.3458 92.2569 71.0401 92.8942C71.0265 92.9296 71.0211 92.9675 71.0242 93.0053C71.0273 93.043 71.0389 93.0796 71.0581 93.1123C71.0773 93.1449 71.1036 93.1728 71.1351 93.1939C71.1666 93.2149 71.2024 93.2286 71.2399 93.2339C72.125 93.2579 73.0901 92.3028 73.6116 91.6455C73.912 91.2896 74.1361 90.8757 74.2698 90.4295C74.4035 89.9834 74.444 89.5145 74.3888 89.052Z" fill="#C4DB6E"/>
<path d="M67.7254 34.9212C67.7254 34.9212 67.066 26.0579 70.5866 23.932C71.8433 23.1707 73.4497 24.3316 73.0821 25.3506C72.7145 26.3696 69.2079 31.9441 69.156 35.6165L67.7254 34.9212Z" fill="#B66F3A"/>
<path d="M69.142 32.2398C63.5794 30.6533 59.6892 26.869 53.6751 32.7972C47.2814 39.1051 53.5033 53.0634 55.7371 55.0394C57.9709 57.0155 60.3765 54.8876 62.6124 56.56C64.8482 58.2323 67.08 60.5101 74.9842 54.1263C82.8885 47.7426 83.1203 37.7124 80.3789 35.127C77.6376 32.5415 74.4687 33.7603 69.142 32.2398Z" fill="#EC1B34"/>
<path d="M69.7974 27.8799C69.7974 27.8799 76.6107 23.8638 80.5029 31.1647C80.5029 31.1647 72.4727 36.0299 69.7974 27.8799Z" fill="#9ECC53"/>
<path d="M78.1452 29.5924C78.1442 29.5858 78.1442 29.579 78.1452 29.5724C78.1163 29.4775 78.0522 29.3972 77.9659 29.3481C77.8797 29.2991 77.7779 29.2849 77.6816 29.3087L77.238 29.3706L75.4038 28.983L75.8434 28.8431C76.1012 28.7612 76.3929 28.6573 76.4728 28.3676C76.4806 28.3393 76.4808 28.3095 76.4734 28.2811C76.466 28.2527 76.4514 28.2267 76.4308 28.2057C76.1971 28.0059 75.9193 28.0759 75.6536 28.1598L74.6406 28.4795C74.574 28.4982 74.5149 28.5371 74.4713 28.5907C74.4276 28.6444 74.4016 28.7102 74.3968 28.7792C73.9672 28.6913 73.5377 28.5974 73.1061 28.5194C73.0803 28.5107 73.0534 28.506 73.0262 28.5054C72.5546 28.4215 72.0811 28.3396 71.6076 28.2737C71.5443 28.2614 71.4788 28.2734 71.4241 28.3073C71.3694 28.3412 71.3294 28.3945 71.3123 28.4566C71.2951 28.5186 71.302 28.5849 71.3316 28.6421C71.3611 28.6993 71.4111 28.7433 71.4717 28.7652C71.9652 28.953 72.4707 29.1208 72.9762 29.2747C73.3479 29.8741 73.7295 30.4735 74.1311 31.0729C74.1898 31.1665 74.282 31.2343 74.3888 31.2624C74.4957 31.2906 74.6092 31.2772 74.7065 31.2248C74.7388 31.2081 74.7679 31.1857 74.7924 31.1588C74.8576 31.0924 74.8993 31.0065 74.9112 30.9142C74.9231 30.8218 74.9046 30.7282 74.8584 30.6473C74.58 30.281 74.2983 29.9187 74.0132 29.5604C74.7824 29.7602 75.5577 29.932 76.3329 30.0899C76.3809 30.1482 76.4249 30.2096 76.4648 30.2737C76.5647 30.4475 76.5907 30.6733 76.7305 30.8092C76.7419 30.8196 76.7558 30.8271 76.7708 30.8308C76.7858 30.8345 76.8015 30.8343 76.8164 30.8303C76.8314 30.8264 76.8451 30.8187 76.8562 30.808C76.8674 30.7973 76.8757 30.784 76.8804 30.7692C76.892 30.6622 76.8819 30.554 76.8506 30.451C76.8194 30.348 76.7677 30.2523 76.6986 30.1698C77.0602 30.2417 77.4239 30.3177 77.7855 30.3836C78.273 30.4555 78.5068 29.7922 78.1452 29.5924Z" fill="#CBDF84"/>
<path d="M56.0348 46.4598C55.3515 44.2759 55.0658 42.142 54.9399 39.8662C54.9336 39.6817 54.8621 39.5054 54.738 39.3688C54.614 39.2321 54.4454 39.1439 54.2623 39.1199C54.0793 39.0959 53.8937 39.1377 53.7386 39.2378C53.5835 39.3379 53.4689 39.4898 53.4154 39.6664C52.6341 41.8163 52.734 44.208 53.2156 46.4198C53.5952 48.1341 53.9409 50.6976 55.863 51.2391C56.0135 51.2779 56.1725 51.2672 56.3165 51.2085C56.4604 51.1498 56.5817 51.0464 56.6622 50.9134C57.5413 49.4069 56.5143 47.9743 56.0348 46.4598Z" fill="#CD152C"/>
<path d="M59.3116 52.624C59.1697 52.3203 58.868 52.1605 58.6023 51.9766L57.9889 51.5551C57.2196 51.0256 56.2526 52.2544 56.9899 52.8618L57.5593 53.3373C57.8091 53.5371 58.0448 53.7989 58.3745 53.8528C58.5333 53.889 58.6992 53.8787 58.8523 53.8232C59.0055 53.7677 59.1394 53.6693 59.2382 53.5397C59.337 53.4102 59.3964 53.255 59.4094 53.0927C59.4224 52.9303 59.3885 52.7676 59.3116 52.624Z" fill="#CD152C"/>
<path d="M79.1062 36.5856C78.7366 35.8024 77.7316 36.4138 77.8295 37.1231C78.0293 38.5217 78.4289 39.9823 78.3889 41.3909C78.345 42.6297 77.4718 43.6147 77.0463 44.7476C76.5068 46.1802 78.5548 46.7457 79.328 45.7087C81.5618 42.7216 80.5928 39.7265 79.1062 36.5856Z" fill="#EF534D"/>
<path d="M75.2802 49.0732C75.2458 49.1421 75.2559 49.1218 75.2802 49.0732V49.0732Z" fill="#EF534D"/>
<path d="M77.0043 48.1841C76.9498 47.9969 76.824 47.8386 76.654 47.7433C76.4839 47.648 76.2833 47.6233 76.0952 47.6746C75.6756 47.7885 75.5277 48.1821 75.5837 48.5737C75.5737 48.4958 75.5657 48.5637 75.5657 48.5977V48.6297C75.5657 48.6416 75.5517 48.6536 75.5377 48.6836C75.6516 48.5457 75.3 49.0033 75.3879 48.8694C75.3659 48.9014 75.3119 49.0113 75.282 49.0692C75.0822 49.4928 75.3139 50.1721 75.8814 50.1102C76.1025 50.0991 76.3157 50.0248 76.496 49.8963C76.6762 49.7678 76.8159 49.5903 76.8984 49.3849C77.0708 49.0087 77.1082 48.5846 77.0043 48.1841Z" fill="#EF534D"/>
<path d="M59.6433 107.007C47.6231 113.148 49.8069 126.885 49.3953 128.525C48.9837 130.166 48.1665 132.214 49.3953 133.033C50.6241 133.852 51.0357 134.264 53.4953 134.264C55.9549 134.264 65.1779 141.437 75.4238 134.264C85.6698 127.091 79.318 117.458 80.9584 114.793C82.5988 112.127 81.7776 110.08 80.7586 109.055C79.7396 108.03 77.6836 109.254 75.6356 107.826C73.5876 106.397 68.8663 102.293 59.6433 107.007Z" fill="#FFD900"/>
<path d="M59.883 130.493C59.1377 130.278 58.4544 130.45 57.7891 129.96C57.1597 129.496 56.9239 128.837 56.5902 128.162C56.1906 127.393 55.0518 127.634 54.82 128.394C54.0208 131.009 57.7791 134.154 60.1967 132.819C61.1658 132.292 60.91 130.787 59.883 130.493Z" fill="#FDBC11"/>
<path d="M63.2318 128.096C62.4665 127.952 61.6533 127.982 60.8761 127.95C60.6474 127.953 60.4289 128.045 60.2672 128.206C60.1055 128.368 60.0135 128.587 60.0109 128.815C60.0109 129.331 60.4105 129.615 60.8761 129.678C61.5634 129.768 62.2927 129.938 62.984 129.926C63.997 129.914 64.3067 128.296 63.2318 128.096Z" fill="#FDBC11"/>
<path d="M66.2728 131.235C66.0486 131.075 65.7844 130.98 65.5096 130.961C65.3517 130.961 65.1959 130.973 65.038 130.961C64.8067 130.954 64.5782 130.907 64.3627 130.823C63.8252 130.589 63.1978 130.663 62.8761 131.223C62.7333 131.472 62.6941 131.768 62.767 132.046C62.8398 132.325 63.0189 132.563 63.2657 132.711C64.1968 133.211 65.6434 133.66 66.4626 132.783C66.5673 132.676 66.6466 132.547 66.6946 132.405C66.7426 132.263 66.758 132.112 66.7398 131.963C66.7216 131.815 66.6701 131.672 66.5893 131.546C66.5085 131.42 66.4003 131.313 66.2728 131.235Z" fill="#FDBC11"/>
<path d="M68.2508 128.911L67.4117 128.955C67.1865 128.955 66.9705 129.044 66.8112 129.204C66.652 129.363 66.5625 129.579 66.5625 129.804C66.5625 130.029 66.652 130.245 66.8112 130.405C66.9705 130.564 67.1865 130.653 67.4117 130.653L68.2508 130.695C69.3997 130.755 69.4017 128.851 68.2508 128.911Z" fill="#FDBC11"/>
<path d="M71.5736 130.649C71.0581 130.586 70.6885 130.981 70.3088 131.249C70.004 131.464 69.6598 131.617 69.2958 131.698C68.3288 131.928 68.5166 133.511 69.5336 133.453C70.1339 133.423 70.7232 133.279 71.2699 133.029C71.8373 132.771 72.5506 132.25 72.4687 131.541C72.4575 131.307 72.3594 131.086 72.1938 130.922C72.0282 130.757 71.807 130.66 71.5736 130.649Z" fill="#FDBC11"/>
<path d="M74.9563 127.433C74.5067 127.433 74.0711 127.594 73.6436 127.718C73.4965 127.759 73.3588 127.828 73.2385 127.922C73.1181 128.015 73.0174 128.132 72.9421 128.265C72.8668 128.397 72.8183 128.543 72.7995 128.695C72.7806 128.846 72.7918 129 72.8323 129.147C72.8729 129.294 72.942 129.432 73.0357 129.552C73.1295 129.672 73.246 129.773 73.3787 129.848C73.5113 129.924 73.6575 129.972 73.8089 129.991C73.9603 130.01 74.1139 129.999 74.261 129.958C74.6905 129.85 75.1461 129.78 75.5297 129.547C75.7389 129.417 75.9006 129.223 75.9908 128.994C76.0811 128.765 76.095 128.513 76.0306 128.276C75.9662 128.038 75.8268 127.828 75.6333 127.676C75.4397 127.524 75.2023 127.439 74.9563 127.433Z" fill="#FDBC11"/>
<path d="M66.1789 107.316C64.7463 107.456 62.3087 108.617 61.983 110.185C61.9478 110.326 61.9449 110.473 61.9744 110.615C62.0039 110.758 62.0651 110.891 62.1534 111.007C62.2417 111.122 62.355 111.216 62.4846 111.281C62.6142 111.346 62.7569 111.382 62.9021 111.384C63.6254 111.384 64.2808 110.963 64.9201 110.655C65.5595 110.347 66.2488 110.185 66.8642 109.856C68.0051 109.246 67.5515 107.182 66.1789 107.316Z" fill="#FFF24C"/>
<path d="M67.5515 110.113L66.4726 110.411C66.377 110.44 66.2932 110.499 66.2337 110.579C66.1741 110.66 66.142 110.757 66.142 110.857C66.142 110.957 66.1741 111.054 66.2337 111.134C66.2932 111.214 66.377 111.273 66.4726 111.302L67.5515 111.6C67.6661 111.632 67.7864 111.637 67.9031 111.614C68.0198 111.592 68.1297 111.542 68.2243 111.471C68.3189 111.399 68.3956 111.306 68.4484 111.199C68.5011 111.093 68.5286 110.976 68.5286 110.857C68.5286 110.738 68.5011 110.621 68.4484 110.514C68.3956 110.408 68.3189 110.315 68.2243 110.243C68.1297 110.171 68.0198 110.122 67.9031 110.099C67.7864 110.077 67.6661 110.082 67.5515 110.113Z" fill="#FFF24C"/>
<path d="M72.167 106.777C71.7295 106.731 71.2819 106.751 70.8423 106.747C69.5596 106.731 69.5576 108.757 70.8423 108.745C71.2819 108.745 71.7295 108.759 72.167 108.715C72.424 108.715 72.6705 108.613 72.8522 108.431C73.034 108.249 73.1361 108.003 73.1361 107.746C73.1361 107.489 73.034 107.242 72.8522 107.06C72.6705 106.879 72.424 106.777 72.167 106.777Z" fill="#FFF24C"/>
<path d="M77.268 110.313C77.0687 110.152 76.8562 110.007 76.6326 109.882C76.4971 109.772 76.3744 109.647 76.267 109.51C75.9373 109.11 75.242 109.166 74.8983 109.51C74.8118 109.594 74.7432 109.695 74.6965 109.806C74.6498 109.917 74.626 110.037 74.6266 110.157C74.5774 110.03 74.4993 109.916 74.3984 109.824C74.2975 109.732 74.1765 109.665 74.0452 109.628C73.5077 109.476 72.8663 109.616 72.3129 109.658C72.0909 109.669 71.8815 109.764 71.7281 109.925C71.5748 110.086 71.4893 110.3 71.4893 110.522C71.4893 110.744 71.5748 110.958 71.7281 111.119C71.8815 111.28 72.0909 111.376 72.3129 111.386C72.8663 111.428 73.5117 111.568 74.0452 111.414C74.2344 111.361 74.4012 111.248 74.5199 111.091C74.6386 110.935 74.7028 110.744 74.7025 110.547C74.7518 110.667 74.8192 110.779 74.9023 110.879C75.3019 111.376 75.9533 111.878 76.6186 111.89C76.799 111.885 76.974 111.827 77.1225 111.725C77.271 111.623 77.3866 111.479 77.4553 111.312C77.524 111.146 77.5429 110.962 77.5096 110.785C77.4764 110.608 77.3925 110.444 77.268 110.313Z" fill="#FFF24C"/>
<path d="M40.2563 31.832L40.2083 57.8885H31.8165L31.8645 31.832H26.1961L26.1441 24.2974H45.9247L45.9727 31.832H40.2563Z" fill="url(#paint1_linear_186_2)"/>
<path d="M35.427 80.7582C35.3791 86.9961 36.6758 90.8823 39.9866 90.8823C42.0006 90.8823 44.9277 90.2589 46.5601 89.8273L46.5122 97.8415C44.4002 98.0812 40.8497 98.4169 38.7857 98.4169C30.1502 98.4169 26.9833 89.4437 27.0313 80.7582C26.9833 72.1207 30.0543 63.1475 38.7857 63.1475C40.8497 63.1475 44.4002 63.4831 46.5122 63.7229L46.5601 71.737C44.9277 71.3055 42.0485 70.6821 40.0345 70.6821C36.7337 70.6821 35.3791 74.5683 35.427 80.7582Z" fill="url(#paint2_linear_186_2)"/>
<path d="M115.904 97.9252H107.512V81.3574L103.093 97.9252H98.9647L94.5031 81.2595V97.9252H86.1113V63.6128H97.0047L101.035 82.3944L105.017 63.6128H115.91L115.904 97.9252Z" fill="url(#paint3_linear_186_2)"/>
<path d="M36.5599 118.733H44.0945L44.0466 126.268H36.512V138.256H28.1202V104.675H45.3473L45.3952 112.207H36.5599V118.733Z" fill="url(#paint4_linear_186_2)"/>
<path d="M115.812 137.465H107.42V121.244L103.007 137.465H98.8729L94.4112 121.149V137.465H86.0195V103.875H96.9128L100.943 122.257L104.925 103.875H115.818L115.812 137.465Z" fill="url(#paint5_linear_186_2)"/>
<path d="M126.56 116.639H134.094V124.22H126.56V129.882H135.389L135.341 137.465H118.114V103.875H135.341L135.389 111.408H126.56V116.639Z" fill="url(#paint6_linear_186_2)"/>
<path d="M75.8254 39.0212C75.8786 38.9922 75.9223 38.9486 75.9514 38.8954C75.9804 38.8423 75.9936 38.7819 75.9892 38.7215H75.4957C75.5297 39.0831 74.8963 39.3389 74.6246 39.4308C74.2188 39.5779 73.7855 39.6331 73.3558 39.5926C72.9745 39.5485 72.6072 39.4227 72.279 39.2237C71.9507 39.0248 71.6692 38.7574 71.4537 38.4398C71.3928 38.3406 71.3014 38.2637 71.1932 38.2207C71.085 38.1777 70.9658 38.1709 70.8534 38.2013C70.741 38.2316 70.6414 38.2975 70.5696 38.3891C70.4977 38.4807 70.4574 38.5931 70.4547 38.7095C70.4127 39.5227 70.8843 40.256 71.5316 40.7075C72.179 41.1591 73.0362 41.307 73.8254 41.3449C74.6666 41.3889 75.5777 41.251 76.1091 40.5257C76.5987 39.8604 76.4388 38.8773 75.6276 38.5736C75.0642 38.3618 74.6586 39.3069 75.214 39.5507C75.26 39.5707 75.3039 39.6166 75.2859 39.5746C75.311 39.6246 75.3194 39.6814 75.3099 39.7365C75.2614 39.8828 75.1613 40.0064 75.0282 40.0842C74.5786 40.3699 73.9413 40.284 73.4298 40.238C72.5926 40.1541 71.4637 39.7265 71.5156 38.7075L70.5166 38.9772C71.196 39.9763 72.3548 40.6596 73.5896 40.5877C74.2026 40.5593 74.7955 40.3607 75.3019 40.0142C75.7615 39.6885 76.241 39.185 75.9373 38.5956C75.9073 38.5442 75.8596 38.5054 75.8032 38.4864C75.7467 38.4675 75.6853 38.4697 75.6303 38.4927C75.5753 38.5157 75.5306 38.5578 75.5044 38.6113C75.4782 38.6647 75.4722 38.7259 75.4878 38.7834C75.5217 38.8913 75.6596 39.1091 75.8074 39.0192L75.8254 39.0212Z" fill="white"/>
<path d="M61.7233 38.4039C61.7715 38.3462 61.8051 38.2776 61.8212 38.2041C61.8294 38.1742 61.8317 38.143 61.8279 38.1122C61.8241 38.0814 61.8143 38.0516 61.799 38.0246C61.7837 37.9976 61.7632 37.9739 61.7387 37.9548C61.7142 37.9357 61.6863 37.9217 61.6563 37.9134C61.6264 37.9051 61.5952 37.9028 61.5644 37.9067C61.5336 37.9105 61.5038 37.9203 61.4768 37.9356C61.4498 37.9509 61.4261 37.9714 61.407 37.9959C61.388 38.0203 61.3739 38.0483 61.3656 38.0782C61.3247 38.183 61.3103 38.2962 61.3237 38.4079C61.3215 38.5173 61.3315 38.6265 61.3536 38.7336C61.3498 38.7555 61.3438 38.7769 61.3357 38.7975C61.4396 38.7376 61.5015 38.7376 61.5195 38.7975C61.5494 38.7636 61.5874 38.5977 61.6154 38.5458L60.9221 38.6357C60.8761 38.5957 60.992 38.5778 60.8861 38.6357C60.772 38.7094 60.6443 38.7597 60.5105 38.7836H60.7562L60.9221 38.9494C60.7582 39.2011 60.7422 39.307 60.8781 39.2671C60.892 39.2651 60.9061 39.2651 60.9201 39.2671C61.0919 39.299 60.8441 39.1492 60.8401 39.1252V38.8715C60.8401 38.8255 60.9061 38.8355 60.8042 38.8874C60.7402 38.9207 60.6733 38.9481 60.6044 38.9694C60.4327 39.0273 60.2539 39.061 60.0729 39.0693C59.7195 39.0847 59.3669 39.0254 59.0379 38.8954C58.4297 38.6275 57.9035 38.2028 57.5134 37.6646C57.2936 37.3749 57.1278 37.0073 56.7481 36.9034C56.6436 36.8722 56.5333 36.8653 56.4257 36.8834C56.3181 36.9015 56.2161 36.944 56.1276 37.0077C56.039 37.0714 55.9662 37.1545 55.9148 37.2508C55.8634 37.347 55.8347 37.4537 55.8311 37.5627C55.8311 37.9384 56.1627 38.294 56.3985 38.5618C56.637 38.8273 56.9052 39.0646 57.1977 39.2691C57.5251 39.4963 57.8812 39.6791 58.2567 39.8125C58.6003 39.9384 59.1997 40.1682 59.5214 39.9224C59.6206 39.8616 59.6976 39.7705 59.7411 39.6626C59.7846 39.5547 59.7924 39.4357 59.7632 39.323C59.7359 39.228 59.6849 39.1415 59.615 39.0716C59.5451 39.0017 59.4586 38.9507 59.3636 38.9234C59.2752 38.8971 59.1812 38.8956 59.092 38.9192C59.0028 38.9429 58.9219 38.9906 58.8581 39.0573L58.8441 39.0753C58.7508 39.1746 58.6989 39.3057 58.6989 39.4419C58.6989 39.5781 58.7508 39.7093 58.8441 39.8085C58.9422 39.9041 59.0738 39.9576 59.2107 39.9576C59.3477 39.9576 59.4793 39.9041 59.5774 39.8085L59.5934 39.7926L58.964 39.8725L58.9939 39.8885L58.7602 39.5828V39.6127C58.8401 39.4129 58.92 39.2131 59.0019 39.0133L58.956 39.0393L59.2217 38.9674C58.7802 38.9574 58.2467 38.6816 57.871 38.4379C57.6694 38.3073 57.4825 38.1552 57.3136 37.9843C57.2206 37.8931 57.1332 37.7963 57.0519 37.6946C57.0219 37.6587 56.9959 37.6207 56.9679 37.5827L56.924 37.5188C56.862 37.4009 56.8521 37.4369 56.894 37.6227L56.7581 37.8565C56.6462 37.9723 56.2726 37.7246 56.4385 37.9644C56.4924 38.0443 56.5464 38.1222 56.6043 38.2001C56.7382 38.3799 56.878 38.5538 57.0279 38.7196C57.2978 39.0163 57.6054 39.2763 57.943 39.4929C58.6625 39.9604 59.5269 40.152 60.3766 40.0323C60.8025 39.9913 61.2059 39.822 61.5335 39.5468C61.6167 39.4729 61.681 39.3801 61.7209 39.2762C61.7608 39.1723 61.7752 39.0604 61.7629 38.9498C61.7506 38.8391 61.7119 38.7331 61.65 38.6406C61.5882 38.548 61.5051 38.4717 61.4076 38.4179C61.2209 38.3371 61.0161 38.3074 60.8142 38.332C60.6122 38.3566 60.4205 38.4345 60.2587 38.5578C59.921 38.8555 59.929 39.4689 60.3906 39.6507C60.8022 39.8145 61.3896 39.4809 61.6414 39.1512C61.7127 39.0607 61.7646 38.9565 61.7938 38.845C61.823 38.7335 61.8289 38.6172 61.8111 38.5034C61.7933 38.3895 61.7521 38.2806 61.6903 38.1834C61.6284 38.0861 61.5471 38.0027 61.4515 37.9384C61.1958 37.7606 60.9001 37.9584 60.8042 38.2021C60.6823 38.5098 60.6044 38.8695 60.8042 39.1692C60.879 39.2948 60.9914 39.3937 61.1255 39.4522C61.2595 39.5106 61.4085 39.5255 61.5515 39.4949C61.6785 39.4575 61.7909 39.3818 61.8731 39.278C61.9554 39.1743 62.0036 39.0476 62.011 38.9154C62.037 38.6237 61.8891 38.352 61.8232 38.0742L61.3676 38.2001C61.4023 38.2892 61.4578 38.3686 61.5295 38.4319C61.5431 38.4459 61.5598 38.4565 61.5783 38.463C61.5968 38.4694 61.6165 38.4714 61.6359 38.4689C61.6553 38.4664 61.6738 38.4594 61.69 38.4484C61.7062 38.4375 61.7197 38.4229 61.7293 38.4059L61.7233 38.4039Z" fill="white"/>
<path d="M61.9091 124.499C61.9091 124.499 69.102 127.296 73.2979 120.303C73.2979 120.303 75.8954 128.539 71.1001 132.313C71.1001 132.291 65.1059 134.09 61.9091 124.499Z" fill="black"/>
<path d="M74.1431 47.3927C72.6126 47.0071 71.2719 46.3537 70.4846 44.8931C70.4027 45.6704 70.9462 46.102 71.4557 46.6414C69.6894 47.2408 67.9112 47.6045 66.1289 47.5765C63.981 47.5445 61.8731 47.097 60.0149 45.9221C60.2427 45.5845 60.4605 45.2828 60.6543 44.9671C60.7243 44.8529 60.761 44.7214 60.7602 44.5874C60.7325 44.4707 60.6845 44.3598 60.6183 44.2598C60.5404 44.3337 60.4305 44.3936 60.3905 44.4855C59.909 45.5985 59.0279 46.1499 57.861 46.3098C57.6612 46.3357 57.4614 46.3577 57.2756 46.3817L57.2616 46.5415C57.402 46.61 57.5524 46.6559 57.7072 46.6774C58.2526 46.6554 58.7941 46.5935 59.3396 46.5675C60.3106 46.5215 61.2737 48.3218 61.8131 48.9771C62.936 50.3378 63.7372 54.9073 66.4626 53.1491C67.5535 52.4437 67.9232 50.7914 68.7284 49.8083C69.6135 48.7274 70.6665 47.5565 72.113 47.2988C72.2902 47.2793 72.4693 47.2908 72.6425 47.3328C73.0082 47.4027 73.3678 47.4986 73.7335 47.5645C73.8572 47.5675 73.9809 47.5541 74.1011 47.5246L74.1431 47.3927Z" fill="black"/>
<path d="M73.192 40.3437C72.2789 40.3977 71.3139 39.6044 70.9342 38.4636L69.7514 39.063L69.6675 38.9551C69.8082 38.7782 69.9626 38.6125 70.129 38.4596C71.188 37.6104 72.4208 37.5465 73.6975 37.6903C75.6956 37.9161 77.0582 38.991 77.8455 40.8212C78.0133 41.2089 78.0073 41.3008 77.8235 41.5485C77.3579 40.3497 76.6726 39.3327 75.5038 38.6594C75.296 39.6924 74.4967 40.2658 73.192 40.3437ZM72.3928 39.1329C72.4388 39.1489 72.6525 38.8632 72.6306 38.8332C72.5173 38.6719 72.3673 38.5397 72.193 38.4476C72.139 38.4196 71.9932 38.5934 71.8793 38.6734V38.8392C72.0402 38.9574 72.2146 39.056 72.3988 39.1329H72.3928Z" fill="black"/>
<path d="M58.978 39.0629C58.0129 38.7332 57.2457 38.2038 56.918 37.1808C55.8071 37.4645 54.9579 38.1358 54.1727 38.9151C54.3065 38.2537 54.7281 37.8201 55.2456 37.4765C56.2778 36.7954 57.4939 36.4467 58.7302 36.4775C59.3413 36.4679 59.9453 36.6086 60.4892 36.8874C61.0331 37.1661 61.5001 37.5742 61.8491 38.0759C62.007 38.2937 62.1648 38.5274 61.987 38.8371L61.5255 38.1258C60.8301 39.0789 59.923 39.3826 58.978 39.0629ZM58.1787 37.5784C58.1783 37.6422 58.1917 37.7053 58.218 37.7635C58.2444 37.8216 58.283 37.8733 58.3312 37.9151C58.3794 37.9569 58.4361 37.9877 58.4974 38.0055C58.5587 38.0232 58.6231 38.0275 58.6862 38.0179C58.918 37.992 59.1098 37.8701 59.0579 37.6024C58.9979 37.2887 58.7502 37.2027 58.3506 37.2027C58.3006 37.3006 58.1668 37.4465 58.1787 37.5844V37.5784Z" fill="black"/>
<path d="M62.3666 42.9993C62.4265 42.7995 62.5005 42.5997 62.5464 42.3999C63.014 40.3 65.3657 40.2161 66.5725 41.1132C67.068 41.4788 67.1619 42.28 66.8282 42.9114C66.7383 43.0812 66.6284 43.2431 66.5285 43.4089L66.6264 43.5228C66.8097 43.4142 66.9788 43.2833 67.1299 43.1332C67.6634 42.4678 67.5296 41.289 66.8602 40.7355C65.7993 39.8544 63.8632 39.9103 62.8641 40.8674C62.2647 41.4488 62.1089 42.1721 62.2367 42.9634L62.3666 42.9993Z" fill="black"/>
<path d="M69.9692 41.1912C71.2759 41.4969 72.5866 41.7806 73.8873 42.1123C75.8304 42.5939 77.5835 43.6494 78.9184 45.1413C78.9424 45.1673 78.9803 45.1832 79.0922 45.1413C78.9656 44.9186 78.8226 44.7056 78.6646 44.5039C77.8385 43.5521 76.8068 42.8006 75.6476 42.3061C73.9354 41.5918 72.1072 41.1957 70.2529 41.1372C70.163 41.1372 70.0711 41.1372 69.9792 41.1372L69.9692 41.1912Z" fill="black"/>
<path d="M61.983 40.2358C61.2997 39.6124 55.6072 39.7902 54.4204 40.4496L61.983 40.2358Z" fill="black"/>
<path d="M77.252 37.095C76.3429 35.4826 72.5127 34.9151 71.5516 36.2718C72.5214 35.9762 73.5381 35.8657 74.5487 35.9461C75.5677 36.038 76.4009 36.5855 77.252 37.095Z" fill="black"/>
<path d="M62.1708 35.5107C62.0349 35.3888 61.921 35.217 61.7712 35.151C60.1528 34.4677 58.5144 34.3039 56.858 35.0272C56.7365 35.0796 56.638 35.1739 56.5803 35.2929C56.7253 35.2844 56.8695 35.2657 57.0118 35.237C58.4844 34.8373 59.951 34.7874 61.4075 35.3089C61.6433 35.3928 61.8651 35.5087 62.0929 35.6086L62.1708 35.5107Z" fill="black"/>
<path d="M71.8833 38.8395C72.0429 38.9574 72.216 39.056 72.3988 39.1332C72.4448 39.1492 72.6585 38.8634 72.6366 38.8335C72.5232 38.6721 72.3733 38.54 72.199 38.4478C72.145 38.4199 71.9992 38.5937 71.8853 38.6736L71.8833 38.8395Z" fill="white"/>
<path d="M58.3506 37.1968C58.3006 37.3007 58.1667 37.4465 58.1787 37.5784C58.1783 37.6422 58.1917 37.7054 58.218 37.7635C58.2443 37.8216 58.283 37.8734 58.3312 37.9151C58.3794 37.9569 58.4361 37.9877 58.4974 38.0055C58.5587 38.0232 58.6231 38.0275 58.6862 38.018C58.918 37.992 59.1098 37.8701 59.0579 37.6024C58.9979 37.2887 58.7502 37.2028 58.3506 37.1968Z" fill="white"/>
<path d="M76.3669 39.1387C76.4085 39.5023 76.3314 39.8695 76.1471 40.1857C75.9474 40.502 75.658 40.7517 75.3159 40.903C74.5527 41.2226 73.716 41.3249 72.8983 41.1987C72.182 41.1138 71.5178 40.7817 71.0201 40.2596C70.6805 39.902 70.2209 39.1487 70.6525 38.6892C71.0261 38.2896 71.7314 38.4174 72.205 38.4894C72.2275 38.4955 72.2511 38.4972 72.2743 38.4943C72.2975 38.4913 72.3199 38.4838 72.3402 38.4722C72.3606 38.4606 72.3784 38.4452 72.3927 38.4267C72.407 38.4082 72.4176 38.3871 72.4238 38.3645C72.4299 38.3419 72.4316 38.3184 72.4287 38.2952C72.4257 38.272 72.4182 38.2495 72.4066 38.2292C72.395 38.2089 72.3796 38.1911 72.3611 38.1767C72.3426 38.1624 72.3214 38.1519 72.2989 38.1457C71.7614 37.9459 70.9962 37.9299 70.5006 38.2656C69.9012 38.6832 70.0031 39.5184 70.3488 40.0738C70.8244 40.8032 71.5655 41.3185 72.4148 41.5104C73.3716 41.7191 74.3694 41.6299 75.274 41.2547C76.0152 40.923 76.8724 39.9799 76.4548 39.1048C76.4493 39.0943 76.4405 39.0861 76.4297 39.0814C76.4189 39.0766 76.4069 39.0757 76.3955 39.0787C76.3841 39.0817 76.3741 39.0885 76.3671 39.098C76.3601 39.1074 76.3565 39.119 76.3569 39.1307L76.3669 39.1387Z" fill="black"/>
<path d="M62.015 38.5834C61.4795 39.8382 59.6873 40.0999 58.5144 39.8182C57.8836 39.6689 57.3041 39.3536 56.8361 38.9051C56.3869 38.4443 56.0457 37.8895 55.837 37.2807C55.8251 37.2372 55.7964 37.2003 55.7573 37.178C55.7181 37.1557 55.6717 37.1499 55.6282 37.1618C55.5848 37.1737 55.5479 37.2024 55.5256 37.2416C55.5033 37.2807 55.4974 37.3272 55.5093 37.3706C55.6954 38.0833 56.0882 38.7249 56.6382 39.2148C57.1794 39.7263 57.8552 40.0729 58.5863 40.2138C59.7852 40.4316 61.8751 40.1119 62.0709 38.6034C62.0709 38.5774 62.029 38.5634 62.017 38.5894L62.015 38.5834Z" fill="black"/>
<path d="M68.4906 118.543C68.6904 118.995 69.2798 119.343 69.7034 119.566C69.6834 119.419 69.6655 119.271 69.6455 119.123C69.3642 119.458 69.051 119.765 68.7104 120.04L69.084 120.088C69.0001 120.006 69.2559 119.598 69.2838 119.506C69.3267 119.386 69.3372 119.256 69.314 119.13C69.2909 119.004 69.235 118.887 69.152 118.789C69.1185 118.756 69.078 118.731 69.0335 118.716C68.989 118.701 68.9417 118.696 68.8951 118.702C68.8485 118.708 68.8039 118.725 68.7647 118.751C68.7254 118.776 68.6925 118.811 68.6684 118.851C68.4007 119.283 68.1911 119.747 68.0451 120.234C68.0337 120.295 68.0439 120.359 68.074 120.414C68.1041 120.469 68.1523 120.512 68.2103 120.535C68.2683 120.558 68.3327 120.561 68.3925 120.543C68.4523 120.524 68.5039 120.486 68.5386 120.434C68.8003 120.034 68.9701 119.57 69.1999 119.155L68.7164 119.217C68.7484 119.259 68.6345 119.449 68.6105 119.494C68.5497 119.607 68.5033 119.726 68.4726 119.85C68.4398 119.966 68.4386 120.089 68.4691 120.206C68.4997 120.323 68.5609 120.43 68.6465 120.515C68.7052 120.571 68.7832 120.603 68.8642 120.603C68.9453 120.603 69.0233 120.571 69.082 120.515C69.4682 120.217 69.8053 119.859 70.0811 119.456C70.1024 119.419 70.115 119.378 70.1179 119.335C70.1208 119.292 70.1139 119.249 70.0977 119.209C70.0815 119.169 70.0565 119.133 70.0246 119.105C69.9926 119.076 69.9545 119.055 69.9132 119.043C69.6627 118.968 69.4204 118.869 69.1899 118.745C68.997 118.62 68.7969 118.506 68.5905 118.404C68.5086 118.372 68.4606 118.473 68.4886 118.535L68.4906 118.543Z" fill="white"/>
<path d="M53.5173 124.434C53.6811 124.517 53.817 124.633 53.9908 124.699C54.1597 124.77 54.3332 124.83 54.5103 124.877C54.8894 124.974 55.278 125.03 55.6691 125.043C56.4399 125.064 57.2112 125.022 57.9749 124.915C58.7421 124.819 59.5154 124.681 60.1587 124.22C60.6852 123.837 61.1149 123.336 61.4135 122.757C61.7729 122.095 62.0187 121.377 62.1408 120.633C62.1654 120.535 62.1544 120.431 62.1098 120.34C62.0652 120.249 61.9899 120.177 61.897 120.136C61.8036 120.095 61.6986 120.091 61.6018 120.122C61.505 120.154 61.4231 120.22 61.3716 120.308C60.8101 121.596 60.4684 123.237 58.9739 123.774C58.5373 123.922 58.0887 124.03 57.6332 124.1C57.1996 124.174 56.7681 124.262 56.3325 124.318C55.8932 124.373 55.4506 124.398 55.0078 124.392C54.7698 124.389 54.5323 124.372 54.2965 124.34C54.0645 124.318 53.8351 124.274 53.6112 124.21C53.5813 124.202 53.5495 124.205 53.5217 124.218C53.4939 124.232 53.472 124.255 53.4601 124.284C53.4481 124.312 53.4469 124.344 53.4567 124.374C53.4665 124.403 53.4866 124.428 53.5133 124.444L53.5173 124.434Z" fill="white"/>
<path d="M68.2109 115.536C68.4826 116.081 69.2099 116.379 69.7514 116.547C70.516 116.787 71.3023 116.951 72.0991 117.037C73.5317 117.184 75.0182 116.889 76.0792 115.858C76.6333 115.344 76.9825 114.647 77.0622 113.896C77.1042 113.374 76.263 113.264 76.1511 113.772C76.0171 114.412 75.6638 114.986 75.1521 115.394C74.5954 115.826 73.9342 116.101 73.236 116.193C72.3564 116.301 71.4652 116.267 70.5965 116.091C70.2149 116.028 69.8333 115.968 69.4577 115.872C69.2818 115.833 69.1099 115.778 68.9442 115.708C68.7647 115.609 68.5977 115.489 68.4466 115.35C68.4199 115.326 68.3853 115.311 68.349 115.31C68.3127 115.308 68.277 115.32 68.2483 115.342C68.2196 115.364 68.1997 115.396 68.1921 115.431C68.1845 115.467 68.1898 115.504 68.2069 115.536H68.2109Z" fill="white"/>
<path d="M66.6364 131.366C67.0436 131.564 67.4309 131.8 67.7933 132.072C68.1629 132.361 68.6565 131.908 68.3208 131.544C68.2486 131.465 68.1553 131.408 68.0519 131.381C67.9485 131.353 67.8393 131.356 67.7373 131.388C67.3917 131.484 67.3377 132.072 67.7373 132.138C68.9581 132.337 70.4267 132.783 71.5336 132.004C72.0159 131.63 72.4227 131.167 72.7324 130.641C73.1021 130.088 73.4757 129.442 73.3039 128.757C73.192 128.301 72.4927 128.403 72.4907 128.869C72.4907 129.41 72.2249 129.826 71.9332 130.267C71.6695 130.667 71.3838 131.089 70.9742 131.346C70.0411 131.93 68.8423 131.446 67.8412 131.378L67.9431 132.142H67.8692C67.9951 131.926 68.121 131.71 68.2449 131.494C67.7696 131.245 67.2411 131.114 66.7044 131.113C66.6752 131.114 66.6471 131.125 66.6244 131.143C66.6016 131.161 66.5853 131.186 66.5777 131.215C66.5701 131.243 66.5717 131.273 66.5823 131.3C66.5929 131.327 66.6118 131.351 66.6364 131.366Z" fill="white"/>
<path d="M53.3175 123.918L55.2776 124.088L55.3315 123.956C54.868 123.756 54.4484 123.524 54.2666 122.917C54.3694 122.962 54.4666 123.019 54.5563 123.087C55.1897 123.794 55.9969 123.886 56.8141 123.594C58.2477 123.113 59.5623 122.332 60.6703 121.302C61.01 120.979 61.2377 120.537 61.5095 120.146C61.5913 120.012 61.666 119.874 61.7333 119.732C62.0589 120.419 60.3966 122.881 59.1358 123.656C57.4654 124.699 54.0508 124.845 53.3175 123.918Z" fill="black"/>
<path d="M56.878 113.778C54.3964 116.523 52.4823 119.584 51.4173 123.145C51.3126 121.282 51.8214 119.437 52.8659 117.892C53.9341 116.282 55.295 114.886 56.878 113.778Z" fill="black"/>
<path d="M57.0918 82.6745C57.0918 82.6745 65.2278 86.5767 76.4728 81.4877C76.4948 81.3418 76.4948 89.9334 66.105 92.5309C66.105 92.5309 57.6692 89.7995 57.0918 82.6745Z" fill="black"/>
<path d="M75.5837 113.156C75.9174 113.482 75.7955 113.848 75.7196 114.283C76.255 113.959 76.281 113.432 76.4209 112.96C76.7086 113.53 76.5088 114.019 76.1991 114.471C75.6581 115.224 74.8867 115.781 74.0012 116.057C72.0571 116.739 70.2229 116.397 68.4707 115.414C68.3841 115.356 68.3038 115.289 68.2309 115.214L68.2788 115.128C68.3748 115.16 68.4787 115.188 68.5666 115.224C70.6705 116.023 72.7285 115.864 74.7365 114.903C75.288 114.637 75.4698 114.103 75.5617 113.532C75.5777 113.406 75.5757 113.28 75.5837 113.156Z" fill="black"/>
<path d="M76.265 111.674C73.9124 110.338 71.2671 109.602 68.5625 109.53L68.5266 109.428C68.6343 109.356 68.7503 109.297 68.8722 109.252C70.6094 108.846 72.4339 109.051 74.0372 109.834C74.6688 110.169 75.2705 110.558 75.8354 110.997C76.0288 111.178 76.198 111.384 76.3389 111.608L76.265 111.674Z" fill="black"/>
<path d="M66.1869 118.993C66.041 118.169 66.8283 117.394 67.6495 117.646C67.8338 117.703 68.0022 117.802 68.141 117.936C68.2798 118.07 68.3852 118.235 68.4487 118.417C68.6125 118.927 68.3927 119.478 68.1909 119.944C68.123 120.102 68.3548 120.237 68.4247 120.08C68.6645 119.522 68.9102 118.881 68.6864 118.281C68.5972 118.058 68.4563 117.859 68.2754 117.701C68.0945 117.542 67.8786 117.429 67.6455 117.37C66.6305 117.114 65.7453 118.082 65.9192 119.069C65.9511 119.24 66.2109 119.166 66.1809 118.997L66.1869 118.993Z" fill="black"/>
<path d="M54.0607 75.9669C55.3994 74.4963 57.4075 73.7111 59.3815 74.1507C59.6193 74.2046 59.7212 73.835 59.4814 73.785C57.4474 73.3674 55.1357 74.1287 53.9149 75.853C53.8529 75.9389 53.9908 76.0528 54.0607 75.9669Z" fill="black"/>
<path d="M70.6345 73.1977C72.115 72.1547 73.8953 72.2866 75.5337 72.856C75.7715 72.9379 75.8734 72.5623 75.6376 72.4804C73.9912 71.9209 71.8853 71.7491 70.5386 73.0798C70.4766 73.1397 70.5606 73.2556 70.6345 73.2037V73.1977Z" fill="black"/>
<path d="M74.3988 83.4137H74.5567C74.5621 83.4122 74.5669 83.4089 74.5703 83.4044C74.5737 83.3999 74.5755 83.3944 74.5755 83.3887C74.5755 83.3831 74.5737 83.3776 74.5703 83.3731C74.5669 83.3686 74.5621 83.3653 74.5567 83.3638H74.3988C74.3934 83.3653 74.3886 83.3686 74.3852 83.3731C74.3818 83.3776 74.38 83.3831 74.38 83.3887C74.38 83.3944 74.3818 83.3999 74.3852 83.4044C74.3886 83.4089 74.3934 83.4122 74.3988 83.4137Z" fill="#CECDCE"/>
<path d="M70.3009 78.6543C70.149 78.5984 70.2829 78.5964 70.3388 78.5384C70.3841 78.49 70.4224 78.4355 70.4527 78.3766C70.5426 78.2167 70.6345 78.0609 70.7344 77.907C70.9366 77.5966 71.1829 77.3172 71.4657 77.0778C71.7654 76.8241 71.3159 76.3625 71.0301 76.6423C70.6765 76.9773 70.392 77.3785 70.193 77.8231C70.121 77.9969 69.9932 78.2447 70.0311 78.4365C70.0691 78.6283 70.125 78.6483 70.2929 78.6863C70.295 78.6863 70.297 78.6859 70.299 78.6851C70.3009 78.6843 70.3027 78.6831 70.3042 78.6816C70.3056 78.6801 70.3068 78.6783 70.3076 78.6764C70.3084 78.6745 70.3088 78.6724 70.3088 78.6703C70.3088 78.6682 70.3084 78.6661 70.3076 78.6642C70.3068 78.6622 70.3056 78.6605 70.3042 78.659C70.3027 78.6575 70.3009 78.6563 70.299 78.6555C70.297 78.6547 70.295 78.6543 70.2929 78.6543H70.3009Z" fill="#CECDCE"/>
<path d="M57.6472 83.3196C57.8979 83.5025 58.1595 83.67 58.4305 83.8211C58.7348 83.9711 59.0469 84.1045 59.3656 84.2207C59.9521 84.4459 60.5528 84.6321 61.1638 84.7782C62.404 85.075 63.67 85.2509 64.9441 85.3037C67.507 85.4138 70.0678 85.0438 72.4947 84.2127C73.8514 83.7464 75.1537 83.1348 76.3789 82.3885C76.9064 82.0668 76.4229 81.2357 75.8954 81.5593C71.7175 84.1308 66.6045 84.984 61.7952 84.0869C61.1238 83.963 60.4585 83.8091 59.7971 83.6313C59.4675 83.5434 59.1418 83.4435 58.8141 83.3516C58.4864 83.2597 58.0988 83.1957 57.7392 83.1098C57.7148 83.1068 57.6901 83.1116 57.6688 83.1237C57.6475 83.1358 57.6306 83.1545 57.6207 83.1769C57.6109 83.1994 57.6085 83.2244 57.614 83.2483C57.6195 83.2723 57.6326 83.2937 57.6512 83.3096L57.6472 83.3196Z" fill="white"/>
<path d="M59.3276 88.209C59.8237 89.0161 60.484 89.7098 61.2657 90.2451C62.1591 90.8365 63.1328 91.2968 64.1569 91.6117C65.3317 91.9854 66.6624 92.2251 67.9152 91.9354C69.114 91.6577 70.147 91.0243 71.1121 90.4389C72.1951 89.7831 73.2157 89.0293 74.1611 88.1871C74.2052 88.157 74.2412 88.1166 74.2662 88.0694C74.2911 88.0223 74.3042 87.9697 74.3042 87.9163C74.3042 87.863 74.2911 87.8104 74.2662 87.7632C74.2412 87.716 74.2052 87.6757 74.1611 87.6456C74.0559 87.574 73.9316 87.5356 73.8044 87.5356C73.6772 87.5356 73.5529 87.574 73.4478 87.6456C72.6428 88.3405 71.7917 88.98 70.9003 89.5597C70.0224 90.1644 69.0786 90.6672 68.087 91.0583C67.0021 91.4579 65.8532 91.278 64.7703 90.9803C63.8339 90.7154 62.9339 90.3356 62.0909 89.8494C61.6333 89.5897 61.2177 89.294 60.7922 89.0063C60.3661 88.724 59.9651 88.4059 59.5933 88.0552C59.4695 87.9373 59.2577 88.0892 59.3336 88.209H59.3276Z" fill="white"/>
<path d="M71.2459 77.897C71.2007 77.9007 71.1552 77.8952 71.1121 77.881L71.3338 78.2806C71.434 78.0435 71.582 77.8297 71.7687 77.6527C71.9555 77.4756 72.1768 77.339 72.4188 77.2516C73.0373 77.0544 73.7058 77.0834 74.3049 77.3335C74.3469 77.0178 74.3889 76.7021 74.4328 76.3864C73.8341 76.3435 73.233 76.4242 72.6669 76.6235C72.1007 76.8229 71.5817 77.1367 71.142 77.5453L71.9592 78.0208C72.159 77.5313 72.7964 77.2955 73.2899 77.3595C73.6234 77.4106 73.9376 77.5484 74.201 77.7591C74.4312 77.9798 74.6475 78.2147 74.8484 78.4624C74.9165 78.5361 74.9987 78.5954 75.0902 78.6366C75.1816 78.6779 75.2805 78.7003 75.3808 78.7026C75.4811 78.7048 75.5808 78.6868 75.6741 78.6497C75.7673 78.6125 75.8521 78.557 75.9234 78.4864C76.0562 78.3315 76.1334 78.1367 76.1428 77.9329C76.1523 77.729 76.0933 77.5279 75.9753 77.3615C75.5917 76.7301 74.8484 75.9748 74.0332 76.3005C73.9108 76.3381 73.8076 76.4213 73.7447 76.5328C73.6819 76.6444 73.6643 76.7758 73.6955 76.8999C73.7309 77.0237 73.8137 77.1286 73.9259 77.1918C74.0381 77.255 74.1707 77.2715 74.2949 77.2376C74.5227 77.1797 74.6945 77.3215 74.8424 77.4834C74.9218 77.5731 74.9952 77.6678 75.0622 77.7671C75.0782 77.7871 75.1441 77.9249 75.1661 77.9289V77.9509C75.162 77.9101 75.1706 77.8691 75.1906 77.8334C75.2106 77.7976 75.2411 77.7689 75.278 77.7511H75.5397C75.4538 77.7391 75.276 77.4374 75.1901 77.3515C75.0199 77.1733 74.8318 77.0133 74.6286 76.874C74.2158 76.5863 73.7321 76.417 73.23 76.3844C72.7653 76.3601 72.3044 76.4804 71.9109 76.7287C71.5173 76.977 71.2103 77.3412 71.0321 77.7711C70.8323 78.2546 71.5257 78.5483 71.8493 78.2466C72.1981 77.9273 72.6083 77.6824 73.0549 77.5271C73.5016 77.3719 73.9752 77.3094 74.4468 77.3435C75.0142 77.3775 75.0642 76.5663 74.5747 76.3964C73.7455 76.1107 72.8184 76.0647 72.0152 76.4484C71.6826 76.5985 71.392 76.8281 71.169 77.1169C70.946 77.4058 70.7975 77.745 70.7364 78.1047C70.6585 78.5923 71.4038 78.6162 71.3578 78.1887C71.3458 78.1266 71.3458 78.0629 71.3578 78.0009C71.3818 77.9369 71.3119 77.885 71.2539 77.899L71.2459 77.897Z" fill="white"/>
<path d="M54.826 80.0369C55.1577 79.2017 55.9849 78.4085 56.88 78.2387C57.5853 78.1028 58.4964 78.4705 58.7622 79.1758L59.6873 78.7862C59.4595 78.2807 59.2017 77.7612 58.7642 77.4035C58.5398 77.2072 58.2711 77.0683 57.9812 76.9987C57.6913 76.9291 57.3888 76.9309 57.0998 77.0039C56.5399 77.1413 55.9951 77.3341 55.4734 77.5793C55.0118 77.8071 54.6242 78.2147 54.6382 78.7582C54.6502 79.1458 55.2077 79.4735 55.4914 79.1098C55.891 78.5983 56.5303 77.921 57.2576 78.1767C57.6273 78.3066 57.955 78.6163 58.2567 78.8461C58.6323 79.1258 59.0099 79.4015 59.3975 79.6653C59.8251 79.953 60.3606 79.2657 59.955 78.942C59.5494 78.6183 59.0739 78.2487 58.6243 77.909C58.2247 77.6053 57.8131 77.2636 57.2996 77.1737C56.2626 76.9939 55.3855 77.6293 54.7761 78.4045L55.6292 78.7582C55.6292 78.5704 55.9449 78.4485 56.1188 78.3825C56.524 78.2246 56.9383 78.0912 57.3595 77.9829C58.1448 77.7951 58.5464 78.7402 58.8061 79.3076C59.0419 79.8231 59.935 79.4555 59.7312 78.908C59.498 78.3296 59.0681 77.8521 58.5172 77.5597C57.9663 77.2672 57.3299 77.1787 56.7202 77.3096C56.0975 77.4485 55.5436 77.8022 55.1557 78.3086C54.9619 78.5502 54.8057 78.8197 54.6922 79.1078C54.5922 79.399 54.5304 79.7019 54.5083 80.009C54.4864 80.2088 54.7581 80.2088 54.818 80.0509L54.826 80.0369Z" fill="white"/>
<path d="M77.0222 80.9538C76.7725 84.0787 75.5057 86.7481 73.3658 88.9799C71.7674 90.6463 69.8812 91.9011 67.6095 92.4905C66.9561 92.6603 66.2828 92.8281 65.6114 92.6603C65.1483 92.5099 64.6968 92.3255 64.2607 92.1089C64.2208 92.0929 64.1848 92.0729 64.1448 92.0609C62.7462 91.6193 61.6133 90.7322 60.5064 89.8171C58.5084 88.1607 57.2296 86.0328 56.5103 83.5532C56.4264 83.2655 56.3924 82.9658 56.3285 82.6341C56.17 82.6891 56.0078 82.7325 55.843 82.764C55.7491 82.776 55.5932 82.744 55.5612 82.6821C55.5293 82.6202 55.5832 82.4823 55.6072 82.3764C55.6211 82.3483 55.6455 82.3268 55.6751 82.3164C56.1647 82.1166 56.6342 81.8729 57.1777 81.8649C57.2507 81.876 57.3223 81.8948 57.3915 81.9208L57.2556 82.2805C57.5281 82.4124 57.8084 82.5279 58.0948 82.6261C59.3495 82.9878 60.5983 83.3834 61.8731 83.6631C63.2717 83.9668 64.6923 83.9169 66.0989 83.843C67.2784 83.7653 68.4504 83.6003 69.6055 83.3494C70.9262 83.0777 72.2369 82.75 73.5237 82.3504C74.5427 82.0518 75.5078 81.5932 76.3829 80.9917C76.4388 80.9518 76.4848 80.8998 76.5587 80.8339C76.187 80.6021 75.7295 80.5322 75.4697 80.0127C75.6909 80.025 75.9103 80.0585 76.1251 80.1126C76.7245 80.3304 77.3079 80.5682 77.8914 80.8119C77.9693 80.8439 78.0133 80.9558 78.0732 81.0297C77.9813 81.0597 77.8854 81.1256 77.8015 81.1136C77.5337 81.0697 77.262 81.0017 77.0222 80.9538ZM58.84 86.9479C58.8712 87.0124 58.9058 87.0751 58.9439 87.1357C59.535 88.0181 60.2573 88.8051 61.0858 89.4694C62.2647 90.4145 63.4575 91.3396 64.954 91.7352C65.5535 91.8951 66.1649 92.1608 66.8082 91.991C70.163 91.1158 72.7304 89.1697 74.5846 86.2586C74.6116 86.202 74.6337 86.1431 74.6506 86.0827C73.9313 86.0947 73.2399 86.0947 72.6006 86.4284C72.4974 86.4772 72.3877 86.5109 72.2749 86.5283C71.5742 86.6615 70.8723 86.7881 70.1689 86.9079C70.1121 86.9109 70.055 86.9068 69.9991 86.896L69.9811 86.806C70.3707 86.6902 70.7544 86.5463 71.152 86.4664C72.129 86.2666 73.0801 85.9888 73.8154 85.2895C74.1742 84.9357 74.4683 84.5219 74.6845 84.0667C74.9504 83.4617 75.1851 82.8435 75.3878 82.2145C75.23 82.2785 75.17 82.2965 75.1161 82.3244C73.9707 82.8852 72.7637 83.3104 71.5196 83.5912C69.2019 84.1407 66.8842 84.6222 64.4745 84.4863C62.8761 84.3944 61.2777 84.2865 59.7472 83.779C59.1477 83.5792 58.5483 83.4114 57.865 83.2036C57.9567 83.4318 58.0185 83.6708 58.0488 83.9149C58.0489 84.2098 58.1578 84.4944 58.3545 84.7141C58.6043 85.0438 58.844 85.3854 59.1098 85.7131C59.2239 85.8604 59.3692 85.9805 59.5354 86.0648C59.9422 86.2724 60.373 86.4294 60.8181 86.5323C61.7472 86.6862 62.6903 86.7621 63.6293 86.864C64.029 86.9079 64.4465 86.9419 64.8561 86.9799C64.5758 87.1 64.2758 87.1678 63.971 87.1797C62.5067 87.2116 61.053 86.9238 59.7112 86.3365C59.6793 86.3172 59.6439 86.3044 59.6071 86.2988C59.5703 86.2932 59.5327 86.2949 59.4965 86.3038C59.4603 86.3127 59.4263 86.3286 59.3962 86.3507C59.3662 86.3728 59.3409 86.4005 59.3216 86.4324C59.1917 86.5863 59.0378 86.7361 58.832 86.9479H58.84Z" fill="black"/>
<path d="M53.0058 81.0122C53.1097 80.8763 53.1497 80.7764 53.2236 80.7364C53.781 80.4447 54.3465 80.167 54.9039 79.8773C54.9899 79.8333 55.1177 79.7474 55.1177 79.6775C55.1177 78.9861 55.5913 78.6505 56.1168 78.4147C56.5903 78.2029 57.0878 77.9871 57.6472 78.113C57.9826 78.1753 58.2993 78.3131 58.5735 78.516C58.8476 78.7188 59.072 78.9814 59.2297 79.2839C59.4555 79.2679 59.7132 79.2379 59.969 79.2399C60.2247 79.2419 60.4505 79.2819 60.6923 79.3058L60.7042 79.3957C60.5002 79.5047 60.2885 79.5989 60.0709 79.6775C58.1549 80.2323 56.1929 80.6135 54.2086 80.8163C53.843 80.8583 53.4813 80.9422 53.0058 81.0122ZM58.0369 79.0501V78.9242C57.911 78.8463 57.7851 78.7244 57.6532 78.7064C57.5673 78.7064 57.3775 78.9062 57.3975 78.9622C57.4225 79.0322 57.4622 79.096 57.5139 79.1494C57.5655 79.2028 57.6281 79.2446 57.6972 79.2719C57.7911 79.2918 57.923 79.132 58.0369 79.0501Z" fill="black"/>
<path d="M77.7735 78.8301C77.6102 78.88 77.4421 78.9128 77.272 78.928C75.258 78.9001 73.242 78.8721 71.228 78.8182C70.8259 78.7844 70.4283 78.7101 70.0411 78.5964C69.9632 78.5784 69.9072 78.4645 69.8413 78.3966C69.9232 78.3486 70.0031 78.2627 70.0851 78.2607C70.5506 78.2487 71.0162 78.2607 71.4837 78.2607C71.5976 77.9905 71.7704 77.749 71.9894 77.5541C72.2085 77.3591 72.4683 77.2155 72.75 77.1338C73.0316 77.052 73.3279 77.0342 73.6173 77.0815C73.9067 77.1289 74.1819 77.2403 74.4228 77.4075C74.7125 77.6213 74.9163 77.949 75.1741 78.2068C75.2484 78.27 75.3406 78.3084 75.4378 78.3166C76.0872 78.4026 76.7366 78.4765 77.3839 78.5664C77.526 78.6005 77.6645 78.648 77.7975 78.7083L77.7735 78.8301ZM73.9293 77.5034C73.8034 77.7032 73.6815 77.8052 73.6716 77.925C73.6716 77.997 73.8714 78.1668 73.9153 78.1468C74.0441 78.0914 74.1465 77.9883 74.201 77.8591C74.223 77.7992 74.0692 77.6793 73.9293 77.5034Z" fill="black"/>
<path d="M69.7434 77.6772C69.7994 77.5853 69.8473 77.4894 69.9112 77.4035C70.1954 77.0301 70.5508 76.7169 70.9569 76.482C71.3629 76.247 71.8116 76.095 72.2769 76.0348C73.6036 75.811 74.9083 75.865 76.1471 76.4344C76.4635 76.6036 76.7514 76.8214 77.0003 77.0798C76.4009 76.9219 75.8135 76.7541 75.216 76.6043C74.2764 76.3622 73.2955 76.3268 72.3409 76.5004C71.6063 76.6049 70.9204 76.9287 70.3728 77.4294C70.208 77.5653 70.0315 77.6864 69.8453 77.7911L69.7434 77.6772Z" fill="black"/>
<path d="M53.6132 78.9022C53.5827 78.8421 53.5645 78.7764 53.5597 78.7091C53.555 78.6417 53.5638 78.5742 53.5855 78.5103C53.6073 78.4464 53.6417 78.3875 53.6866 78.3372C53.7315 78.2868 53.786 78.2459 53.847 78.2169C54.2687 77.9364 54.7155 77.6956 55.1817 77.4976C56.2147 77.098 57.2516 76.6764 58.3965 76.7344C58.7534 76.726 59.1066 76.8078 59.4235 76.9721V77.0601C59.0099 77.1 58.5943 77.128 58.1827 77.1779C56.7205 77.3893 55.3085 77.8631 54.0148 78.5766C53.8704 78.6715 53.7359 78.7806 53.6132 78.9022Z" fill="black"/>
<path d="M67.4556 79.6952C67.3697 79.6433 67.2818 79.5953 67.1998 79.5393C66.4486 79.0358 65.7073 78.5124 64.7562 78.4704C64.6631 78.4654 64.5697 78.4654 64.4765 78.4704C63.973 78.5064 63.8012 78.6702 63.7412 79.1777C63.7192 79.3775 63.7113 79.5773 63.6773 79.7651C63.65 79.8345 63.61 79.8982 63.5594 79.9529C63.5115 79.897 63.4255 79.8431 63.4235 79.7851C63.3974 79.4342 63.4055 79.0815 63.4475 78.7321C63.5214 78.3225 63.8471 78.1068 64.2467 78.0508C65.4096 77.887 66.3587 78.3126 67.1579 79.1318C67.2977 79.2736 67.4136 79.4394 67.5415 79.5933L67.4556 79.6952Z" fill="black"/>
<path d="M58.0368 79.0498C57.9229 79.1318 57.7911 79.2916 57.6972 79.2716C57.628 79.2443 57.5655 79.2026 57.5138 79.1492C57.4621 79.0958 57.4225 79.0319 57.3975 78.9619C57.3775 78.912 57.5673 78.7002 57.6532 78.7062C57.7851 78.7062 57.911 78.846 58.0368 78.924V79.0498Z" fill="white"/>
<path d="M73.9293 77.5034C74.0691 77.6792 74.223 77.7991 74.201 77.8591C74.1464 77.9883 74.0441 78.0913 73.9153 78.1468C73.8673 78.1668 73.6655 77.9969 73.6715 77.925C73.6815 77.8051 73.8034 77.6952 73.9293 77.5034Z" fill="white"/>
<path d="M54.5163 80.4405C54.5598 79.9462 54.6407 79.456 54.7581 78.9739C54.84 78.6602 54.9799 77.9329 55.4254 77.9889C55.6252 78.0129 55.6572 77.6932 55.4714 77.6552C54.9519 77.5533 54.6722 78.0888 54.5583 78.5124C54.3733 79.1414 54.3357 79.8046 54.4484 80.4505C54.4484 80.4904 54.5123 80.4764 54.5163 80.4505V80.4405Z" fill="black"/>
<path d="M58.2886 77.0558C58.7041 77.387 59.0701 77.7759 59.3755 78.2107C59.6531 78.6487 59.8892 79.1116 60.0808 79.5934C60.1708 79.7932 60.4645 79.6453 60.4225 79.4495C60.1907 78.3865 59.3016 77.4515 58.3745 76.942C58.3066 76.906 58.2227 77.0019 58.2886 77.0558Z" fill="black"/>
<path d="M71.4317 76.4046C70.9042 77.0042 70.5329 77.7249 70.3508 78.5026C70.3089 78.7124 70.6245 78.8023 70.6745 78.5925C70.8309 77.8433 71.1212 77.1285 71.5317 76.4825C71.5716 76.4226 71.4797 76.3487 71.4317 76.4046Z" fill="black"/>
<path d="M74.9263 76.3665C75.2094 76.7301 75.4544 77.1218 75.6576 77.5354C75.8379 77.9506 75.9803 78.3813 76.0832 78.8221C76.1431 79.0219 76.5008 78.9999 76.4828 78.7701C76.3729 77.7991 75.7635 76.878 75.0222 76.2806C75.0104 76.2712 74.9956 76.2664 74.9805 76.2672C74.9654 76.2679 74.9511 76.2742 74.9403 76.2847C74.9295 76.2953 74.923 76.3094 74.9219 76.3245C74.9207 76.3395 74.9252 76.3545 74.9343 76.3665H74.9263Z" fill="black"/>
<path d="M62.1089 124.499C62.1089 124.499 69.102 127.097 73.2979 120.303L73.6975 121.102C73.6975 121.102 71.0481 128.309 62.1828 125.298C62.1089 125.298 62.1089 124.499 62.1089 124.499Z" fill="white"/>
<path d="M73.0082 120.535L72.167 120.304V120.208C73.0601 120.162 73.9912 120.288 74.7644 119.636C74.7824 120.018 74.7165 120.07 73.8334 120.435C73.9353 121.193 74.0332 121.954 74.141 122.711C74.4767 124.909 74.0831 127.015 73.5137 129.105C73.3984 129.516 73.2507 129.916 73.0721 130.304C72.0891 132.468 70.2209 133.191 67.9191 132.41C66.5553 131.953 65.3821 131.055 64.5844 129.858C63.3856 128.128 62.2287 126.074 61.7612 124.643L60.976 125.123C61.0759 124.563 62.6783 123.546 63.3037 123.724L62.3286 124.274V124.378C64.02 124.912 65.8242 124.981 67.5515 124.577C69.9372 124.046 71.5296 122.378 73.0082 120.535ZM62.1088 124.699C62.2847 125.059 62.3586 125.447 62.5924 125.64C62.9725 125.93 63.396 126.158 63.8471 126.316C65.2822 126.868 66.8352 127.041 68.3567 126.819C69.5316 126.659 70.6385 126.346 71.5196 125.5C72.4675 124.562 73.1767 123.409 73.5876 122.14C73.7734 121.602 73.6475 121.083 73.3678 120.565C70.6105 124.539 67.2518 126.056 62.1088 124.699ZM66.9841 131.616C70.101 133.447 72.3488 132.106 73.1001 129.618C70.9122 129.858 68.8522 130.372 66.9841 131.624V131.616Z" fill="black"/>
</g>
<defs>
<radialGradient id="paint0_radial_186_2" cx="0" cy="0" r="1" gradientUnits="userSpaceOnUse" gradientTransform="translate(81 81) rotate(90) scale(81)">
<stop stop-color="#FFF3D6"/>
<stop offset="1" stop-color="#FFE39A"/>
</radialGradient>
<linearGradient id="paint1_linear_186_2" x1="36.0564" y1="57.8885" x2="36.0564" y2="24.2974" gradientUnits="userSpaceOnUse">
<stop stop-color="#0F4E00"/>
<stop offset="1" stop-color="#0F4400"/>
</linearGradient>
<linearGradient id="paint2_linear_186_2" x1="36.7957" y1="98.4169" x2="36.7957" y2="63.1475" gradientUnits="userSpaceOnUse">
<stop stop-color="#0F4E00"/>
<stop offset="1" stop-color="#0F4400"/>
</linearGradient>
<linearGradient id="paint3_linear_186_2" x1="101.005" y1="97.9252" x2="101.005" y2="63.6128" gradientUnits="userSpaceOnUse">
<stop stop-color="#0F4E00"/>
<stop offset="1" stop-color="#0F4400"/>
</linearGradient>
<linearGradient id="paint4_linear_186_2" x1="36.7517" y1="138.264" x2="36.7517" y2="104.675" gradientUnits="userSpaceOnUse">
<stop stop-color="#0F4E00"/>
<stop offset="1" stop-color="#0F4400"/>
</linearGradient>
<linearGradient id="paint5_linear_186_2" x1="100.913" y1="137.465" x2="100.913" y2="103.875" gradientUnits="userSpaceOnUse">
<stop stop-color="#0F4E00"/>
<stop offset="1" stop-color="#0F4400"/>
</linearGradient>
<linearGradient id="paint6_linear_186_2" x1="126.752" y1="137.465" x2="126.752" y2="103.875" gradientUnits="userSpaceOnUse">
<stop stop-color="#0F4E00"/>
<stop offset="1" stop-color="#0F4400"/>
</linearGradient>
</defs>
</svg>
