<svg width="347" height="347" viewBox="0 0 347 347" fill="none" xmlns="http://www.w3.org/2000/svg">
<rect width="347" height="347" rx="85" fill="url(#paint0_radial_1_2)"/>
<path d="M143.457 81.1173C143.457 81.1173 141.51 55.7512 151.049 49.691C154.473 47.5298 158.851 50.868 157.862 53.791C156.874 56.7141 147.437 72.5621 147.356 83.0903L143.457 81.1173Z" fill="#0F4400"/>
<path d="M148.708 67.1995C135.942 63.5575 127.014 54.8738 113.212 68.4835C98.5237 82.9576 112.818 114.992 117.945 119.528C123.072 124.065 128.593 119.177 133.72 123.016C138.848 126.855 143.992 132.085 162.117 117.452C180.241 102.82 180.785 79.7906 174.477 73.8503C168.168 67.91 160.935 70.6875 148.708 67.1995Z" fill="#0F4400"/>
<path d="M146.786 58.7812C146.786 58.7812 164.453 48.3686 174.549 67.298C174.549 67.298 153.728 79.9147 146.786 58.7812Z" fill="#0F4400"/>
<path d="M118.626 99.8327C117.059 94.8211 116.405 89.925 116.113 84.7037C116.1 84.2807 115.938 83.8761 115.654 83.5617C115.371 83.2472 114.986 83.0434 114.566 82.9865C114.147 82.9295 113.721 83.023 113.364 83.2505C113.007 83.4779 112.742 83.8245 112.617 84.2287C110.824 89.1632 111.051 94.6542 112.189 99.73C113.045 103.663 113.854 109.543 118.266 110.789C118.612 110.879 118.978 110.854 119.309 110.719C119.64 110.584 119.918 110.346 120.102 110.04C122.084 106.612 119.713 103.304 118.626 99.8327Z" fill="#0F4400"/>
<path d="M126.149 113.982C125.82 113.28 125.131 112.916 124.519 112.492L123.111 111.529C121.343 110.314 119.131 113.134 120.8 114.525L122.109 115.616C122.679 116.091 123.222 116.674 123.98 116.802C124.345 116.888 124.728 116.868 125.082 116.742C125.436 116.616 125.747 116.391 125.976 116.093C126.205 115.795 126.343 115.437 126.374 115.063C126.405 114.688 126.327 114.313 126.149 113.982Z" fill="#0F4400"/>
<path d="M171.575 77.1756C170.719 75.3824 168.416 76.7819 168.648 78.4125C169.075 81.6052 170.038 84.9733 169.931 88.2046C169.833 91.0506 167.826 93.3103 166.85 95.9081C165.613 99.1993 170.312 100.496 172.088 98.1165C177.211 91.2518 174.977 84.3827 171.575 77.1756Z" fill="#0F4400"/>
<path d="M162.793 105.833C162.715 105.989 162.737 105.946 162.793 105.833V105.833Z" fill="#0F4400"/>
<path d="M166.752 103.796C166.626 103.371 166.34 103.011 165.955 102.792C165.569 102.574 165.114 102.513 164.684 102.623C163.721 102.884 163.379 103.787 163.512 104.686C163.486 104.506 163.469 104.665 163.465 104.742L163.443 104.814C163.443 104.844 163.413 104.87 163.379 104.938C163.64 104.622 162.831 105.675 163.037 105.366C162.99 105.439 162.861 105.692 162.793 105.833C162.339 106.804 162.866 108.362 164.175 108.225C164.682 108.198 165.171 108.026 165.584 107.73C165.998 107.435 166.318 107.027 166.508 106.556C166.908 105.692 166.994 104.716 166.752 103.796Z" fill="#0F4400"/>
<path d="M169.842 190.602C174.412 184.931 177.002 177.168 174.806 170.222C174.027 167.757 172.666 165.48 172.148 162.946C171.797 161.281 171.815 159.561 171.635 157.87C171.207 153.702 169.396 149.491 165.99 147.056C163.73 145.442 160.965 144.727 158.286 144.06L149.277 141.77C143.855 140.392 137.769 139.095 132.941 141.924C129.381 144.008 127.288 148.001 126.445 152.041C125.602 156.082 125.82 160.254 125.824 164.384C125.824 168.279 125.645 172.259 126.787 175.987C127.763 179.162 129.65 181.978 131.73 184.546C136.588 190.593 143.641 197.415 150.887 200.531C158.038 203.621 165.712 195.721 169.842 190.602Z" fill="#0F4400"/>
<path d="M111.17 193.26C108.41 189.536 106.861 185.077 105.354 180.699C103.548 175.447 101.823 169.336 104.768 164.633C106.022 162.625 108.029 161.102 108.906 158.902C109.762 156.783 109.399 154.382 109.908 152.161C110.999 147.428 115.634 144.496 119.97 142.318C123.445 140.572 127.373 138.933 131.097 139.981C135.642 141.265 138.308 146.178 138.702 150.882C138.946 153.77 138.655 157.045 140.615 159.18C142.027 160.721 144.219 161.192 146.14 162.009C150.176 163.721 153.57 168.168 152.166 172.323C151.31 174.917 148.742 176.838 148.421 179.556C148.1 182.274 150.043 184.645 152.132 186.348C154.22 188.051 156.651 189.519 157.957 191.877C159.728 195.087 158.86 199.303 156.544 202.149C154.229 204.995 150.72 206.63 147.167 207.529C134.632 210.678 118.831 203.583 111.17 193.26Z" fill="#0F4400"/>
<path d="M136.661 209.955C132.707 209.775 128.825 208.843 125.221 207.207C121.459 205.496 117.911 202.872 116.186 199.114C114.461 195.357 115.065 190.358 118.326 187.842C119.049 187.255 119.92 186.877 120.843 186.75C123.838 186.442 126.064 189.528 128.974 190.174C135.274 191.599 139.836 181.58 146.162 182.898C148.729 183.425 150.677 185.774 153.27 186.023C155.864 186.271 158.265 184.277 160.897 183.883C165.626 183.164 169.752 188.222 169.478 192.999C169.08 199.911 164.235 202.705 158.616 204.695C151.31 207.289 144.655 210.319 136.661 209.955Z" fill="#0F4400"/>
<path d="M124.189 177.228C118.386 169.225 120.564 156.351 124.955 148.297C125.182 147.869 124.476 147.492 124.228 147.894C119.542 155.525 115.108 171.159 123.222 178.242C123.851 178.807 124.639 177.865 124.189 177.228Z" fill="#0F4400"/>
<path d="M123.898 179.316C123.252 178.405 122.777 178.319 121.729 177.943C120.114 177.373 118.58 176.599 117.162 175.64C114.406 173.74 112.429 171.185 111.799 167.847C111.768 167.702 111.682 167.575 111.559 167.493C111.437 167.41 111.287 167.377 111.141 167.401C110.995 167.425 110.864 167.504 110.775 167.622C110.685 167.74 110.645 167.888 110.661 168.035C111.005 171.252 112.53 174.227 114.941 176.385C116.871 178.161 121.014 181.165 123.697 180.164C123.773 180.128 123.84 180.076 123.893 180.011C123.945 179.946 123.983 179.87 124.002 179.789C124.022 179.707 124.022 179.622 124.004 179.541C123.986 179.459 123.95 179.382 123.898 179.316Z" fill="#0F4400"/>
<path d="M131.486 166.567C129.578 168.626 128.097 171.001 127.502 173.765C127.074 175.82 126.47 178.824 128.238 180.352C128.35 180.432 128.49 180.466 128.627 180.445C128.763 180.424 128.886 180.351 128.97 180.241C129.95 178.662 129.398 176.663 129.616 174.865C129.95 172.139 130.876 169.518 132.329 167.187C132.412 167.076 132.446 166.936 132.425 166.799C132.405 166.661 132.33 166.538 132.218 166.456C132.106 166.373 131.966 166.339 131.829 166.36C131.692 166.381 131.569 166.455 131.486 166.567Z" fill="#0F4400"/>
<path d="M162.087 164.992C159.313 159 155.962 151.823 150.292 148.078C150.217 148.022 150.132 147.981 150.041 147.958C149.951 147.935 149.856 147.929 149.764 147.942C149.577 147.969 149.408 148.069 149.294 148.22C149.181 148.371 149.132 148.56 149.159 148.747C149.185 148.934 149.285 149.103 149.436 149.217C157.31 155.337 165.6 172.567 162.913 182.359C162.866 182.483 162.866 182.619 162.911 182.744C162.957 182.868 163.046 182.971 163.161 183.036C163.277 183.1 163.412 183.121 163.541 183.094C163.671 183.067 163.786 182.995 163.867 182.89C167.958 178.229 164.346 169.875 162.087 164.992Z" fill="#0F4400"/>
<path d="M156.146 161.067C155.504 159.736 153.741 159.116 152.564 158.273C151.136 157.249 149.779 156.129 148.503 154.922C147.728 154.194 146.453 155.517 147.219 156.274C148.511 157.587 149.891 158.811 151.349 159.938C152.577 160.879 153.951 162.249 155.569 162.167C155.686 162.145 155.797 162.097 155.893 162.026C155.989 161.955 156.068 161.863 156.124 161.757C156.179 161.651 156.21 161.534 156.214 161.415C156.218 161.295 156.195 161.177 156.146 161.067Z" fill="#0F4400"/>
<path d="M159.647 174.891C158.409 173.678 157.092 172.547 155.705 171.506C155.213 171.138 154.695 171.874 155.145 172.268C156.519 173.443 157.806 174.716 158.997 176.077C159.853 177.061 160.653 178.803 161.907 179.231C161.989 179.26 162.077 179.268 162.162 179.254C162.248 179.239 162.328 179.203 162.396 179.148C162.464 179.094 162.516 179.023 162.548 178.942C162.58 178.861 162.591 178.773 162.579 178.687C162.485 177.228 160.623 175.85 159.647 174.891Z" fill="#0F4400"/>
<path d="M166.846 158.825C166.66 156.611 166.239 154.423 165.592 152.298C165.569 152.177 165.5 152.069 165.399 151.998C165.298 151.927 165.173 151.899 165.052 151.919C164.93 151.939 164.821 152.006 164.748 152.106C164.676 152.206 164.645 152.33 164.663 152.452C164.967 154.616 165.146 156.795 165.198 158.979C165.241 160.721 164.817 162.535 165.399 164.192C165.587 164.731 166.294 164.577 166.508 164.162C167.334 162.595 166.991 160.537 166.846 158.825Z" fill="#0F4400"/>
<path d="M171.956 173.693C171.933 173.556 171.857 173.434 171.744 173.353C171.631 173.272 171.491 173.24 171.354 173.263C171.218 173.285 171.096 173.361 171.015 173.474C170.934 173.587 170.902 173.727 170.924 173.864C171.072 175.123 170.986 176.398 170.672 177.626C170.436 178.516 170.094 179.196 170.188 180.147C170.202 180.223 170.235 180.294 170.285 180.354C170.334 180.413 170.398 180.459 170.47 180.486C170.543 180.514 170.621 180.522 170.697 180.511C170.774 180.499 170.846 180.468 170.907 180.421C172.713 179.06 172.367 175.649 171.956 173.693Z" fill="#0F4400"/>
<path d="M139.571 202.662C138.676 201.062 136.22 200.57 134.683 199.632C132.576 198.382 130.667 196.826 129.017 195.014C128.985 194.975 128.945 194.941 128.9 194.917C128.855 194.892 128.805 194.877 128.754 194.872C128.703 194.866 128.651 194.871 128.602 194.886C128.553 194.9 128.507 194.924 128.467 194.957C128.427 194.989 128.394 195.029 128.369 195.074C128.345 195.119 128.33 195.169 128.324 195.22C128.319 195.271 128.324 195.322 128.338 195.372C128.353 195.421 128.377 195.467 128.409 195.507C129.737 197.719 131.448 199.677 133.464 201.289C134.936 202.418 137.315 204.284 139.207 203.634C139.384 203.553 139.521 203.405 139.589 203.223C139.657 203.041 139.651 202.84 139.571 202.662Z" fill="#0F4400"/>
<path d="M148.571 191.954C148.536 191.742 148.418 191.552 148.242 191.426C148.067 191.3 147.849 191.249 147.636 191.285C147.423 191.32 147.233 191.438 147.107 191.614C146.982 191.789 146.931 192.007 146.966 192.22C147.292 194.933 147.27 197.677 146.902 200.386C146.774 201.52 147.103 202.821 148.477 202.294C148.667 202.21 148.831 202.076 148.952 201.908C149.074 201.74 149.149 201.542 149.17 201.336C149.507 198.197 149.304 195.024 148.571 191.954Z" fill="#0F4400"/>
<path d="M160.657 192.134C160.593 191.651 159.767 191.646 159.776 192.16C159.814 194.599 158.534 196.405 156.724 197.903C155.474 198.93 153.617 199.551 152.907 201.028C152.875 201.11 152.862 201.199 152.87 201.287C152.877 201.375 152.905 201.46 152.951 201.536C152.997 201.612 153.06 201.676 153.134 201.724C153.209 201.771 153.294 201.801 153.382 201.811C155.432 201.866 157.661 199.671 158.873 198.134C159.566 197.311 160.083 196.353 160.39 195.32C160.697 194.288 160.788 193.203 160.657 192.134Z" fill="#0F4400"/>
<path d="M126.56 226.591C98.7676 240.795 103.813 272.555 102.868 276.347C101.922 280.139 100.026 284.877 102.868 286.773C105.709 288.668 106.659 289.614 112.343 289.614C118.027 289.614 139.357 306.203 163.05 289.614C186.742 273.026 172.037 250.758 175.846 244.595C179.655 238.433 177.742 233.695 175.371 231.328C173 228.962 168.262 231.803 163.525 228.486C158.787 225.17 147.886 215.69 126.56 226.591Z" fill="#0F4400"/>
<path d="M127.112 280.888C125.401 280.391 123.809 280.785 122.276 279.655C120.821 278.585 120.273 277.057 119.477 275.517C118.562 273.736 115.921 274.293 115.386 276.052C113.546 282.099 122.234 289.37 127.797 286.285C130.083 285.035 129.501 281.577 127.112 280.888Z" fill="#0F4400"/>
<path d="M134.859 275.367C133.087 275.033 131.208 275.106 129.411 275.033C128.883 275.039 128.379 275.25 128.005 275.623C127.632 275.996 127.419 276.5 127.412 277.027C127.412 278.226 128.336 278.889 129.411 279.026C130.998 279.232 132.685 279.625 134.285 279.6C136.626 279.557 137.315 275.833 134.859 275.367Z" fill="#0F4400"/>
<path d="M141.89 282.613C141.37 282.243 140.759 282.023 140.123 281.975C139.763 281.975 139.4 282.009 139.036 281.975C138.5 281.956 137.972 281.846 137.474 281.65C136.228 281.115 134.777 281.282 134.05 282.553C133.732 283.13 133.648 283.807 133.815 284.444C133.982 285.081 134.388 285.63 134.949 285.976C137.088 287.132 140.448 288.172 142.361 286.143C142.594 285.894 142.768 285.597 142.872 285.272C142.976 284.948 143.007 284.604 142.962 284.267C142.917 283.929 142.797 283.605 142.612 283.319C142.427 283.033 142.18 282.792 141.89 282.613Z" fill="#0F4400"/>
<path d="M146.465 277.237L144.522 277.34C141.997 277.468 141.993 281.132 144.522 281.264L146.465 281.367C149.119 281.504 149.127 277.1 146.465 277.237Z" fill="#0F4400"/>
<path d="M154.148 281.26C152.958 281.11 152.102 282.022 151.22 282.651C150.517 283.15 149.721 283.504 148.879 283.691C146.645 284.222 147.082 287.881 149.427 287.748C150.816 287.678 152.18 287.345 153.446 286.768C154.76 286.173 156.407 284.966 156.215 283.344C156.201 282.799 155.979 282.279 155.595 281.892C155.211 281.505 154.693 281.279 154.148 281.26Z" fill="#0F4400"/>
<path d="M161.967 273.822C160.927 273.801 159.921 274.194 158.932 274.481C158.592 274.575 158.274 274.734 157.996 274.951C157.718 275.167 157.485 275.437 157.31 275.743C157.136 276.05 157.024 276.388 156.98 276.738C156.937 277.088 156.962 277.443 157.056 277.783C157.149 278.123 157.309 278.441 157.526 278.719C157.742 278.998 158.011 279.231 158.318 279.405C158.625 279.579 158.963 279.691 159.313 279.735C159.662 279.779 160.018 279.753 160.358 279.66C161.351 279.407 162.408 279.232 163.294 278.709C163.775 278.409 164.148 277.961 164.355 277.432C164.563 276.903 164.594 276.321 164.445 275.773C164.297 275.225 163.975 274.739 163.529 274.387C163.082 274.036 162.535 273.838 161.967 273.822Z" fill="#0F4400"/>
<path d="M141.672 227.301C138.36 227.622 132.723 230.297 131.979 233.935C131.696 235.313 132.595 236.738 134.118 236.725C135.792 236.725 137.307 235.754 138.783 235.043C140.26 234.333 141.856 233.956 143.277 233.186C145.896 231.769 144.848 226.997 141.672 227.301Z" fill="#0F4400"/>
<path d="M144.848 233.755L142.348 234.444C142.129 234.512 141.937 234.649 141.801 234.834C141.665 235.02 141.592 235.243 141.592 235.473C141.592 235.703 141.665 235.927 141.801 236.112C141.937 236.297 142.129 236.434 142.348 236.502L144.848 237.191C145.113 237.267 145.392 237.28 145.663 237.23C145.933 237.179 146.189 237.067 146.409 236.901C146.629 236.735 146.807 236.52 146.93 236.274C147.053 236.027 147.117 235.755 147.117 235.48C147.117 235.204 147.053 234.932 146.93 234.686C146.807 234.439 146.629 234.224 146.409 234.058C146.189 233.892 145.933 233.78 145.663 233.729C145.392 233.679 145.113 233.692 144.848 233.768V233.755Z" fill="#0F4400"/>
<path d="M155.517 226.056C154.507 225.953 153.471 226 152.457 225.987C149.487 225.953 149.461 230.639 152.457 230.601C153.471 230.601 154.507 230.639 155.517 230.532C156.111 230.532 156.68 230.296 157.1 229.877C157.52 229.457 157.756 228.888 157.756 228.294C157.756 227.7 157.52 227.131 157.1 226.711C156.68 226.291 156.111 226.056 155.517 226.056Z" fill="#0F4400"/>
<path d="M167.312 234.238C166.854 233.862 166.363 233.528 165.844 233.241C165.527 232.99 165.24 232.703 164.988 232.385C164.226 231.448 162.613 231.594 161.821 232.385C161.621 232.58 161.462 232.813 161.354 233.07C161.246 233.328 161.191 233.604 161.192 233.883C161.08 233.589 160.899 233.325 160.666 233.113C160.432 232.901 160.152 232.747 159.848 232.664C158.603 232.308 157.122 232.634 155.847 232.728C155.317 232.728 154.808 232.938 154.433 233.313C154.059 233.688 153.848 234.196 153.848 234.726C153.848 235.256 154.059 235.765 154.433 236.14C154.808 236.514 155.317 236.725 155.847 236.725C157.131 236.823 158.603 237.153 159.848 236.793C160.286 236.672 160.672 236.409 160.947 236.046C161.221 235.684 161.369 235.241 161.368 234.786C161.479 235.063 161.632 235.322 161.821 235.552C162.759 236.704 164.252 237.881 165.793 237.889C166.216 237.89 166.63 237.765 166.982 237.53C167.335 237.296 167.61 236.962 167.772 236.571C167.935 236.181 167.978 235.75 167.896 235.335C167.814 234.92 167.611 234.538 167.312 234.238Z" fill="#0F4400"/>
<path d="M167.834 189.335C172.067 184.084 174.464 176.924 172.431 170.474C171.708 168.193 170.462 166.083 169.974 163.747C169.649 162.206 169.662 160.614 169.495 159.039C169.067 155.187 167.428 151.288 164.274 149.033C162.181 147.539 159.626 146.893 157.135 146.242L148.798 144.128C143.778 142.844 138.146 141.65 133.678 144.269C130.382 146.2 128.448 149.893 127.686 153.629C126.924 157.365 127.104 161.234 127.108 165.052C127.108 168.655 126.946 172.327 128.003 175.786C128.901 178.726 130.652 181.349 132.578 183.729C137.071 189.327 143.598 195.639 150.3 198.52C156.912 201.378 164.017 194.069 167.834 189.335Z" fill="#9BCC5F"/>
<path d="M113.546 191.779C110.978 188.355 109.557 184.208 108.166 180.155C106.493 175.298 104.896 169.644 107.622 165.287C108.782 163.434 110.618 162.022 111.449 159.989C112.227 158.029 111.906 155.803 112.377 153.749C113.387 149.371 117.676 146.657 121.69 144.642C124.904 143.024 128.538 141.509 132.004 142.476C136.211 143.653 138.676 148.215 139.044 152.564C139.267 155.238 138.997 158.268 140.812 160.267C142.117 161.688 144.146 162.129 145.948 162.882C149.68 164.466 152.821 168.583 151.511 172.426C150.702 174.827 148.353 176.607 148.049 179.119C147.745 181.632 149.551 183.827 151.473 185.406C153.394 186.986 155.658 188.338 156.861 190.521C158.5 193.491 157.717 197.39 155.577 200.018C153.437 202.645 150.189 204.165 146.898 204.995C135.257 207.914 120.624 201.344 113.546 191.779Z" fill="#C4DB6E"/>
<path d="M137.131 207.242C133.474 207.074 129.882 206.211 126.548 204.7C123.068 203.12 119.781 200.685 118.189 197.21C116.597 193.735 117.149 189.108 120.179 186.78C120.85 186.243 121.655 185.9 122.507 185.787C125.264 185.501 127.339 188.355 130.04 188.967C135.873 190.29 140.089 181.015 145.943 182.227C148.306 182.719 150.12 184.889 152.521 185.12C154.922 185.351 157.143 183.506 159.579 183.134C163.953 182.47 167.774 187.153 167.518 191.569C167.15 197.968 162.669 200.557 157.469 202.393C150.69 204.777 144.531 207.58 137.131 207.242Z" fill="#E4E991"/>
<path d="M125.593 176.971C120.222 169.567 122.238 157.656 126.304 150.201C126.513 149.816 125.876 149.456 125.632 149.829C121.292 156.89 117.188 171.356 124.694 177.913C125.281 178.422 126.008 177.545 125.593 176.971Z" fill="#E4E991"/>
<path d="M125.332 178.888C124.733 178.032 124.296 177.968 123.325 177.604C121.831 177.076 120.411 176.357 119.101 175.465C116.533 173.706 114.718 171.343 114.136 168.257C114.104 168.127 114.024 168.013 113.912 167.938C113.8 167.864 113.664 167.835 113.531 167.856C113.398 167.878 113.278 167.949 113.195 168.055C113.112 168.161 113.072 168.294 113.083 168.429C113.402 171.406 114.812 174.16 117.042 176.158C118.831 177.797 122.662 180.579 125.148 179.654C125.215 179.62 125.273 179.572 125.32 179.514C125.366 179.455 125.399 179.387 125.417 179.314C125.434 179.241 125.436 179.165 125.421 179.092C125.407 179.018 125.376 178.949 125.332 178.888Z" fill="#E4E991"/>
<path d="M132.342 167.093C130.533 168.94 129.26 171.243 128.657 173.757C128.251 175.653 127.703 178.435 129.338 179.847C129.389 179.885 129.447 179.912 129.509 179.927C129.57 179.942 129.635 179.945 129.697 179.936C129.76 179.926 129.82 179.904 129.875 179.872C129.929 179.839 129.976 179.795 130.014 179.744C130.926 178.285 130.399 176.436 130.613 174.771C130.923 172.248 131.781 169.824 133.126 167.667C133.202 167.563 133.233 167.433 133.214 167.306C133.194 167.179 133.125 167.065 133.021 166.988C132.917 166.912 132.787 166.881 132.66 166.9C132.533 166.92 132.418 166.989 132.342 167.093Z" fill="#E4E991"/>
<path d="M160.661 165.634C158.094 160.096 154.995 153.449 149.748 149.983C149.607 149.897 149.44 149.867 149.278 149.899C149.116 149.931 148.972 150.022 148.875 150.155C148.777 150.287 148.732 150.452 148.75 150.616C148.767 150.78 148.846 150.931 148.969 151.04C156.245 156.698 163.927 172.644 161.44 181.709C161.397 181.823 161.397 181.949 161.439 182.064C161.482 182.178 161.564 182.274 161.671 182.333C161.778 182.392 161.902 182.411 162.022 182.386C162.141 182.361 162.248 182.294 162.322 182.197C166.092 177.883 162.75 170.153 160.661 165.634Z" fill="#C4DB6E"/>
<path d="M155.179 162.005C154.584 160.772 152.954 160.194 151.862 159.437C150.543 158.486 149.288 157.449 148.105 156.334C147.39 155.662 146.209 156.882 146.911 157.584C148.106 158.8 149.383 159.932 150.732 160.973C151.867 161.829 153.142 163.113 154.636 163.036C154.747 163.019 154.854 162.975 154.946 162.909C155.038 162.843 155.113 162.757 155.166 162.657C155.219 162.557 155.247 162.445 155.25 162.332C155.252 162.219 155.228 162.107 155.179 162.005Z" fill="#C4DB6E"/>
<path d="M158.402 174.793C157.256 173.671 156.038 172.626 154.755 171.664C154.302 171.322 153.822 172.002 154.238 172.366C155.502 173.455 156.686 174.634 157.781 175.893C158.569 176.804 159.313 178.413 160.473 178.811C160.549 178.838 160.631 178.846 160.71 178.832C160.79 178.818 160.864 178.785 160.927 178.734C160.99 178.683 161.039 178.617 161.068 178.542C161.098 178.468 161.109 178.386 161.098 178.306C161.03 176.971 159.305 175.683 158.402 174.793Z" fill="#C4DB6E"/>
<path d="M165.078 159.92C164.908 157.872 164.52 155.848 163.923 153.882C163.904 153.768 163.841 153.667 163.747 153.6C163.654 153.533 163.538 153.506 163.424 153.524C163.311 153.543 163.209 153.606 163.142 153.7C163.075 153.793 163.048 153.909 163.067 154.023C163.346 156.025 163.51 158.041 163.559 160.062C163.597 161.675 163.208 163.353 163.747 164.885C163.923 165.386 164.573 165.24 164.774 164.859C165.515 163.417 165.198 161.508 165.078 159.92Z" fill="#C4DB6E"/>
<path d="M169.794 173.684C169.764 173.566 169.69 173.465 169.588 173.398C169.486 173.332 169.363 173.306 169.243 173.326C169.123 173.346 169.015 173.41 168.939 173.505C168.864 173.601 168.827 173.721 168.836 173.843C168.975 175.008 168.897 176.189 168.605 177.326C168.386 178.152 168.07 178.777 168.155 179.659C168.171 179.728 168.203 179.792 168.25 179.845C168.296 179.898 168.355 179.939 168.421 179.964C168.487 179.989 168.559 179.998 168.629 179.988C168.699 179.979 168.766 179.953 168.823 179.911C170.496 178.649 170.175 175.516 169.794 173.684Z" fill="#C4DB6E"/>
<path d="M139.828 200.493C138.997 199.012 136.725 198.554 135.3 197.689C133.351 196.53 131.586 195.088 130.061 193.41C129.999 193.338 129.912 193.293 129.818 193.285C129.724 193.276 129.63 193.305 129.557 193.365C129.483 193.424 129.436 193.51 129.425 193.604C129.413 193.698 129.439 193.792 129.496 193.868C130.726 195.914 132.31 197.726 134.174 199.217C135.531 200.266 137.722 201.973 139.485 201.387C139.649 201.313 139.776 201.178 139.84 201.01C139.905 200.843 139.9 200.657 139.828 200.493Z" fill="#C4DB6E"/>
<path d="M148.156 190.585C148.116 190.395 148.004 190.228 147.844 190.118C147.684 190.009 147.488 189.965 147.297 189.997C147.105 190.028 146.934 190.132 146.817 190.287C146.7 190.442 146.648 190.636 146.671 190.829C146.97 193.341 146.95 195.88 146.611 198.387C146.491 199.435 146.795 200.638 148.066 200.15C148.242 200.072 148.393 199.949 148.506 199.794C148.619 199.638 148.688 199.455 148.708 199.264C149.02 196.361 148.833 193.426 148.156 190.585Z" fill="#C4DB6E"/>
<path d="M159.339 190.748C159.279 190.32 158.513 190.298 158.522 190.773C158.556 193.029 157.37 194.702 155.697 196.089C154.541 197.043 152.821 197.612 152.166 198.978C152.137 199.053 152.125 199.135 152.132 199.215C152.139 199.296 152.164 199.375 152.205 199.445C152.246 199.514 152.302 199.574 152.37 199.619C152.437 199.664 152.514 199.694 152.594 199.705C154.49 199.756 156.557 197.711 157.674 196.303C158.318 195.54 158.798 194.654 159.084 193.698C159.37 192.743 159.457 191.738 159.339 190.748Z" fill="#C4DB6E"/>
<path d="M145.066 74.8004C145.066 74.8004 143.654 55.8154 151.195 51.2617C153.887 49.6311 157.327 52.1176 156.54 54.3003C155.753 56.483 148.242 68.4235 148.13 76.2897L145.066 74.8004Z" fill="#B66F3A"/>
<path d="M148.1 69.0569C136.186 65.6588 127.853 57.553 114.971 70.251C101.276 83.7622 114.603 113.661 119.387 117.893C124.172 122.126 129.325 117.568 134.114 121.15C138.903 124.732 143.684 129.611 160.614 115.937C177.545 102.264 178.042 80.7792 172.17 75.2412C166.298 69.7032 159.51 72.3138 148.1 69.0569Z" fill="#EC1B34"/>
<path d="M149.504 59.7185C149.504 59.7185 164.098 51.1162 172.435 66.7544C172.435 66.7544 155.235 77.1756 149.504 59.7185Z" fill="#9ECC53"/>
<path d="M167.385 63.3863C167.383 63.3721 167.383 63.3576 167.385 63.3435C167.323 63.1401 167.186 62.9682 167.001 62.8631C166.816 62.758 166.598 62.7277 166.392 62.7785L165.442 62.9112L161.513 62.0809L162.455 61.7813C163.007 61.6059 163.632 61.3833 163.803 60.7628C163.819 60.7022 163.82 60.6383 163.804 60.5774C163.788 60.5166 163.757 60.461 163.713 60.4161C163.212 59.9881 162.617 60.1379 162.048 60.3177L159.878 61.0024C159.736 61.0426 159.609 61.1259 159.516 61.2408C159.422 61.3557 159.366 61.4966 159.356 61.6444C158.436 61.4561 157.516 61.2549 156.591 61.088C156.536 61.0694 156.478 61.0593 156.42 61.0581C155.41 60.8783 154.396 60.7028 153.382 60.5616C153.246 60.5353 153.106 60.561 152.989 60.6337C152.871 60.7063 152.786 60.8205 152.749 60.9534C152.712 61.0864 152.727 61.2282 152.79 61.3508C152.854 61.4733 152.961 61.5675 153.091 61.6144C154.148 62.0167 155.23 62.3762 156.313 62.7058C157.109 63.9897 157.927 65.2736 158.787 66.5576C158.913 66.758 159.11 66.9031 159.339 66.9635C159.568 67.0239 159.811 66.9951 160.019 66.8828C160.089 66.847 160.151 66.7992 160.204 66.7416C160.343 66.5992 160.432 66.4152 160.458 66.2175C160.483 66.0197 160.444 65.8191 160.345 65.646C159.748 64.8613 159.145 64.0853 158.534 63.3178C160.182 63.7457 161.843 64.1138 163.503 64.4519C163.606 64.5768 163.7 64.7083 163.786 64.8457C164 65.218 164.055 65.7016 164.355 65.9926C164.379 66.015 164.409 66.031 164.441 66.0389C164.473 66.0468 164.507 66.0465 164.539 66.0379C164.571 66.0294 164.6 66.0129 164.624 65.99C164.648 65.9672 164.666 65.9386 164.676 65.907C164.701 65.6778 164.679 65.446 164.612 65.2253C164.545 65.0047 164.434 64.7999 164.286 64.6231C165.061 64.7772 165.84 64.9398 166.615 65.081C167.659 65.2351 168.16 63.8142 167.385 63.3863Z" fill="#CBDF84"/>
<path d="M120.025 99.516C118.561 94.8382 117.949 90.2674 117.68 85.3928C117.667 84.9976 117.513 84.62 117.248 84.3272C116.982 84.0344 116.621 83.8455 116.229 83.7941C115.837 83.7427 115.439 83.8322 115.107 84.0466C114.774 84.261 114.529 84.5864 114.414 84.9648C112.741 89.5698 112.955 94.6927 113.986 99.4304C114.8 103.102 115.54 108.593 119.657 109.753C119.98 109.836 120.32 109.813 120.629 109.688C120.937 109.562 121.197 109.34 121.369 109.056C123.252 105.829 121.052 102.76 120.025 99.516Z" fill="#CD152C"/>
<path d="M127.044 112.719C126.74 112.068 126.094 111.726 125.525 111.332L124.211 110.429C122.563 109.295 120.492 111.927 122.071 113.228L123.291 114.247C123.826 114.675 124.331 115.236 125.037 115.351C125.377 115.429 125.732 115.406 126.06 115.288C126.388 115.169 126.675 114.958 126.887 114.681C127.098 114.403 127.226 114.071 127.253 113.723C127.281 113.375 127.209 113.027 127.044 112.719Z" fill="#CD152C"/>
<path d="M169.444 78.3654C168.652 76.6877 166.499 77.9973 166.709 79.5167C167.137 82.5125 167.993 85.641 167.907 88.6582C167.813 91.3117 165.943 93.4216 165.031 95.8482C163.876 98.9168 168.262 100.128 169.919 97.9068C174.703 91.5085 172.628 85.0932 169.444 78.3654Z" fill="#EF534D"/>
<path d="M161.248 105.114C161.175 105.261 161.196 105.218 161.248 105.114V105.114Z" fill="#EF534D"/>
<path d="M164.941 103.209C164.825 102.808 164.555 102.469 164.191 102.265C163.827 102.061 163.397 102.008 162.994 102.118C162.095 102.362 161.778 103.205 161.898 104.044C161.877 103.877 161.86 104.023 161.86 104.095V104.164C161.86 104.189 161.83 104.215 161.8 104.279C162.044 103.984 161.291 104.964 161.479 104.677C161.432 104.746 161.316 104.981 161.252 105.105C160.824 106.013 161.321 107.468 162.536 107.335C163.01 107.311 163.466 107.152 163.852 106.877C164.238 106.602 164.538 106.221 164.714 105.782C165.084 104.976 165.164 104.067 164.941 103.209Z" fill="#EF534D"/>
<path d="M127.754 229.205C102.007 242.361 106.685 271.785 105.804 275.298C104.922 278.812 103.172 283.199 105.804 284.954C108.436 286.708 109.317 287.59 114.586 287.59C119.854 287.59 139.609 302.954 161.556 287.59C183.503 272.226 169.897 251.593 173.411 245.884C176.925 240.174 175.166 235.788 172.983 233.592C170.8 231.397 166.396 234.02 162.01 230.96C157.623 227.9 147.51 219.11 127.754 229.205Z" fill="#FFD900"/>
<path d="M128.268 279.514C126.672 279.052 125.208 279.42 123.783 278.371C122.435 277.378 121.93 275.966 121.215 274.52C120.359 272.872 117.92 273.39 117.423 275.016C115.711 280.618 123.761 287.355 128.94 284.496C131.016 283.366 130.468 280.143 128.268 279.514Z" fill="#FDBC11"/>
<path d="M135.441 274.378C133.802 274.07 132.06 274.134 130.395 274.066C129.905 274.071 129.437 274.268 129.091 274.615C128.744 274.961 128.547 275.429 128.542 275.919C128.542 277.023 129.398 277.631 130.395 277.768C131.867 277.96 133.429 278.324 134.91 278.299C137.08 278.273 137.743 274.806 135.441 274.378Z" fill="#FDBC11"/>
<path d="M141.955 281.102C141.474 280.759 140.908 280.556 140.32 280.515C139.982 280.515 139.648 280.541 139.31 280.515C138.814 280.501 138.325 280.401 137.863 280.22C136.712 279.719 135.368 279.878 134.679 281.076C134.373 281.611 134.289 282.245 134.445 282.841C134.601 283.437 134.985 283.948 135.514 284.265C137.508 285.334 140.606 286.297 142.361 284.419C142.585 284.189 142.755 283.912 142.858 283.608C142.961 283.304 142.994 282.981 142.955 282.663C142.916 282.344 142.806 282.038 142.633 281.768C142.459 281.498 142.228 281.27 141.955 281.102Z" fill="#FDBC11"/>
<path d="M146.192 276.124L144.394 276.219C143.912 276.219 143.449 276.41 143.108 276.751C142.767 277.092 142.575 277.555 142.575 278.037C142.575 278.52 142.767 278.983 143.108 279.324C143.449 279.665 143.912 279.856 144.394 279.856L146.192 279.946C148.652 280.075 148.657 275.996 146.192 276.124Z" fill="#FDBC11"/>
<path d="M153.309 279.848C152.205 279.711 151.413 280.558 150.6 281.132C149.947 281.592 149.209 281.92 148.43 282.095C146.358 282.587 146.761 285.976 148.939 285.852C150.225 285.788 151.487 285.48 152.658 284.945C153.874 284.393 155.402 283.276 155.226 281.757C155.202 281.257 154.992 280.784 154.637 280.431C154.283 280.078 153.809 279.87 153.309 279.848Z" fill="#FDBC11"/>
<path d="M160.554 272.957C159.592 272.957 158.659 273.304 157.743 273.569C157.428 273.656 157.133 273.804 156.875 274.005C156.617 274.206 156.401 274.455 156.24 274.74C156.079 275.024 155.975 275.337 155.935 275.661C155.894 275.985 155.918 276.314 156.005 276.629C156.092 276.944 156.24 277.239 156.441 277.497C156.642 277.755 156.891 277.971 157.175 278.132C157.459 278.293 157.773 278.397 158.097 278.437C158.421 278.478 158.75 278.454 159.065 278.367C159.985 278.136 160.961 277.986 161.783 277.485C162.231 277.208 162.577 276.793 162.771 276.303C162.964 275.812 162.994 275.272 162.856 274.764C162.718 274.255 162.419 273.805 162.005 273.479C161.59 273.154 161.081 272.971 160.554 272.957Z" fill="#FDBC11"/>
<path d="M141.753 229.869C138.685 230.168 133.464 232.655 132.766 236.015C132.691 236.316 132.684 236.631 132.747 236.936C132.811 237.24 132.942 237.527 133.131 237.773C133.32 238.02 133.563 238.221 133.84 238.361C134.118 238.501 134.424 238.577 134.735 238.582C136.284 238.582 137.688 237.679 139.057 237.02C140.427 236.361 141.903 236.015 143.221 235.308C145.665 234.003 144.694 229.582 141.753 229.869Z" fill="#FFF24C"/>
<path d="M144.694 235.86L142.383 236.498C142.178 236.56 141.998 236.686 141.871 236.858C141.743 237.03 141.674 237.239 141.674 237.453C141.674 237.667 141.743 237.875 141.871 238.047C141.998 238.219 142.178 238.345 142.383 238.407L144.694 239.045C144.939 239.113 145.197 239.123 145.447 239.075C145.697 239.027 145.932 238.921 146.135 238.767C146.337 238.613 146.502 238.414 146.615 238.186C146.728 237.958 146.787 237.707 146.787 237.453C146.787 237.198 146.728 236.947 146.615 236.719C146.502 236.491 146.337 236.292 146.135 236.138C145.932 235.984 145.697 235.878 145.447 235.83C145.197 235.782 144.939 235.793 144.694 235.86Z" fill="#FFF24C"/>
<path d="M154.58 228.713C153.643 228.615 152.684 228.658 151.742 228.649C148.995 228.615 148.991 232.955 151.742 232.929C152.684 232.929 153.643 232.959 154.58 232.865C155.13 232.865 155.658 232.646 156.048 232.257C156.437 231.867 156.656 231.339 156.656 230.789C156.656 230.238 156.437 229.71 156.048 229.321C155.658 228.932 155.13 228.713 154.58 228.713Z" fill="#FFF24C"/>
<path d="M165.506 236.288C165.079 235.943 164.624 235.633 164.145 235.364C163.855 235.129 163.592 234.862 163.362 234.568C162.656 233.712 161.166 233.832 160.43 234.568C160.245 234.748 160.098 234.964 159.998 235.202C159.898 235.44 159.847 235.696 159.848 235.955C159.743 235.682 159.576 235.437 159.359 235.241C159.143 235.044 158.884 234.9 158.603 234.82C157.452 234.495 156.078 234.795 154.892 234.885C154.417 234.908 153.968 235.113 153.64 235.457C153.311 235.802 153.128 236.26 153.128 236.736C153.128 237.212 153.311 237.67 153.64 238.014C153.968 238.359 154.417 238.564 154.892 238.587C156.078 238.677 157.46 238.976 158.603 238.647C159.008 238.533 159.366 238.291 159.62 237.955C159.874 237.62 160.011 237.21 160.011 236.789C160.117 237.046 160.261 237.286 160.439 237.5C161.295 238.565 162.69 239.64 164.115 239.665C164.502 239.654 164.876 239.532 165.194 239.312C165.513 239.093 165.76 238.786 165.907 238.429C166.055 238.071 166.095 237.679 166.024 237.299C165.953 236.919 165.773 236.568 165.506 236.288Z" fill="#FFF24C"/>
<path d="M86.2279 68.1839L86.1252 123.996H68.1502L68.2529 68.1839H56.1113L56 52.0449H98.3696L98.4723 68.1839H86.2279Z" fill="url(#paint1_linear_1_2)"/>
<path d="M75.8838 172.982C75.7811 186.344 78.5586 194.668 85.6502 194.668C89.9642 194.668 96.234 193.333 99.7306 192.408L99.6279 209.574C95.1042 210.088 87.499 210.807 83.078 210.807C64.5809 210.807 57.7975 191.586 57.9002 172.982C57.7975 154.481 64.3755 135.261 83.078 135.261C87.499 135.261 95.1042 135.98 99.6279 136.493L99.7306 153.659C96.234 152.735 90.0669 151.399 85.7529 151.399C78.6827 151.399 75.7811 159.724 75.8838 172.982Z" fill="url(#paint2_linear_1_2)"/>
<path d="M248.264 209.754H230.289V174.266L220.822 209.754H211.98L202.423 174.057V209.754H184.448V136.258H207.782L216.414 176.487L224.943 136.258H248.277L248.264 209.754Z" fill="url(#paint3_linear_1_2)"/>
<path d="M78.3104 254.323H94.4493L94.3466 270.462H78.2076V296.141H60.2327V224.211H97.1327L97.2354 240.346H78.3104V254.323Z" fill="url(#paint4_linear_1_2)"/>
<path d="M248.067 294.446H230.092V259.703L220.638 294.446H211.783L202.227 259.498V294.446H184.252V222.499H207.585L216.217 261.873L224.747 222.499H248.08L248.067 294.446Z" fill="url(#paint5_linear_1_2)"/>
<path d="M271.088 249.838H287.227V266.076H271.088V278.204H290L289.897 294.446H252.997V222.499H289.897L290 238.634H271.088V249.838Z" fill="url(#paint6_linear_1_2)"/>
<path d="M162.416 83.5824C162.53 83.5204 162.624 83.4268 162.686 83.313C162.748 83.1992 162.776 83.0699 162.767 82.9405H161.71C161.783 83.7151 160.426 84.2629 159.844 84.4598C158.975 84.7748 158.047 84.8932 157.126 84.8064C156.31 84.712 155.523 84.4425 154.82 84.0163C154.117 83.5901 153.514 83.0174 153.052 82.337C152.922 82.1245 152.726 81.9599 152.494 81.8679C152.262 81.7758 152.007 81.7612 151.766 81.8262C151.525 81.8912 151.312 82.0323 151.158 82.2285C151.004 82.4247 150.918 82.6655 150.912 82.9148C150.822 84.6567 151.832 86.2273 153.219 87.1945C154.606 88.1618 156.442 88.4785 158.132 88.5598C159.934 88.6539 161.885 88.3586 163.024 86.8051C164.072 85.3799 163.73 83.2743 161.992 82.6238C160.786 82.1701 159.917 84.1944 161.107 84.7166C161.205 84.7594 161.299 84.8578 161.261 84.7679C161.314 84.875 161.332 84.9965 161.312 85.1146C161.208 85.428 160.994 85.6927 160.709 85.8593C159.746 86.4713 158.38 86.2872 157.285 86.1888C155.491 86.0091 153.073 85.0932 153.185 82.9105L151.045 83.4883C152.5 85.6282 154.982 87.0918 157.627 86.9378C158.94 86.877 160.21 86.4517 161.295 85.7095C162.279 85.0119 163.306 83.9334 162.656 82.6708C162.592 82.5607 162.489 82.4776 162.368 82.437C162.248 82.3965 162.116 82.4012 161.998 82.4504C161.881 82.4996 161.785 82.5898 161.728 82.7044C161.672 82.8189 161.66 82.95 161.693 83.0731C161.766 83.3042 162.061 83.7707 162.378 83.5781L162.416 83.5824Z" fill="white"/>
<path d="M132.21 82.26C132.313 82.1363 132.385 81.9895 132.419 81.832C132.437 81.7679 132.442 81.701 132.434 81.635C132.426 81.5691 132.405 81.5053 132.372 81.4475C132.339 81.3897 132.295 81.3389 132.243 81.298C132.19 81.2571 132.13 81.227 132.066 81.2093C132.002 81.1916 131.935 81.1867 131.869 81.1948C131.803 81.203 131.74 81.2241 131.682 81.2569C131.624 81.2897 131.573 81.3335 131.532 81.3859C131.491 81.4383 131.461 81.4983 131.444 81.5624C131.356 81.7868 131.325 82.0293 131.354 82.2685C131.349 82.5027 131.37 82.7367 131.418 82.9661C131.41 83.0129 131.397 83.0588 131.379 83.1031C131.602 82.9747 131.735 82.9747 131.773 83.1031C131.837 83.0303 131.919 82.6751 131.979 82.5638L130.493 82.7564C130.395 82.6708 130.643 82.6323 130.416 82.7564C130.172 82.9144 129.898 83.022 129.612 83.0731H130.138L130.493 83.4283C130.142 83.9676 130.108 84.1944 130.399 84.1088C130.429 84.1047 130.459 84.1047 130.489 84.1088C130.857 84.1773 130.327 83.8563 130.318 83.805V83.2614C130.318 83.163 130.459 83.1844 130.241 83.2957C130.104 83.3669 129.961 83.4256 129.813 83.4711C129.445 83.5953 129.062 83.6673 128.675 83.6851C127.918 83.7181 127.162 83.5913 126.458 83.3128C125.155 82.7389 124.028 81.8291 123.192 80.6765C122.721 80.0559 122.366 79.2684 121.553 79.0459C121.329 78.979 121.093 78.9643 120.862 79.003C120.632 79.0418 120.413 79.1329 120.224 79.2693C120.034 79.4057 119.878 79.5838 119.768 79.7899C119.658 79.996 119.597 80.2247 119.589 80.4582C119.589 81.2628 120.299 82.0246 120.804 82.5981C121.315 83.1667 121.889 83.6751 122.516 84.1131C123.217 84.5999 123.98 84.9914 124.784 85.2772C125.52 85.5468 126.804 86.039 127.493 85.5126C127.706 85.3822 127.871 85.1871 127.964 84.956C128.057 84.7248 128.074 84.4699 128.011 84.2287C127.953 84.0252 127.843 83.8398 127.694 83.6901C127.544 83.5404 127.359 83.4312 127.155 83.3727C126.966 83.3163 126.765 83.3132 126.574 83.3638C126.382 83.4144 126.209 83.5167 126.072 83.6594L126.042 83.698C125.843 83.9106 125.731 84.1915 125.731 84.4833C125.731 84.7751 125.843 85.056 126.042 85.2686C126.253 85.4733 126.534 85.5879 126.828 85.5879C127.121 85.5879 127.403 85.4733 127.613 85.2686L127.647 85.2344L126.299 85.4056L126.363 85.4398L125.863 84.785V84.8492C126.034 84.4212 126.205 83.9933 126.381 83.5653L126.282 83.6209L126.851 83.4669C125.906 83.4455 124.763 82.8549 123.958 82.3327C123.526 82.053 123.126 81.7272 122.764 81.3612C122.565 81.1657 122.378 80.9585 122.204 80.7407C122.139 80.6636 122.084 80.5823 122.024 80.501L121.93 80.364C121.797 80.1115 121.776 80.1886 121.865 80.5866L121.574 81.0873C121.335 81.3355 120.534 80.8049 120.89 81.3184C121.005 81.4896 121.121 81.6565 121.245 81.8234C121.532 82.2086 121.831 82.5809 122.152 82.9362C122.73 83.5717 123.389 84.1285 124.112 84.5924C125.654 85.5939 127.505 86.0043 129.325 85.748C130.237 85.6601 131.101 85.2974 131.803 84.708C131.981 84.5497 132.119 84.351 132.205 84.1284C132.29 83.9059 132.321 83.6661 132.294 83.4291C132.268 83.1922 132.185 82.9651 132.053 82.7668C131.92 82.5686 131.742 82.405 131.533 82.2899C131.134 82.1168 130.695 82.0532 130.262 82.1059C129.83 82.1585 129.419 82.3255 129.073 82.5895C128.349 83.2272 128.366 84.5411 129.355 84.9305C130.237 85.2815 131.495 84.5668 132.034 83.8606C132.187 83.6668 132.298 83.4435 132.361 83.2047C132.423 82.966 132.436 82.7168 132.398 82.473C132.36 82.2291 132.271 81.9958 132.139 81.7875C132.006 81.5793 131.832 81.4006 131.628 81.2628C131.08 80.8819 130.446 81.3056 130.241 81.8277C129.98 82.4868 129.813 83.2572 130.241 83.8991C130.401 84.1681 130.642 84.3801 130.929 84.5053C131.216 84.6304 131.535 84.6624 131.842 84.5967C132.114 84.5168 132.354 84.3545 132.531 84.1323C132.707 83.9101 132.81 83.6388 132.826 83.3556C132.882 82.7307 132.565 82.1487 132.424 81.5538L131.448 81.8234C131.522 82.0142 131.641 82.1844 131.794 82.3199C131.824 82.3499 131.86 82.3727 131.899 82.3864C131.939 82.4002 131.981 82.4045 132.022 82.3991C132.064 82.3937 132.104 82.3787 132.138 82.3553C132.173 82.3319 132.202 82.3007 132.222 82.2642L132.21 82.26Z" fill="white"/>
<path d="M132.608 266.675C132.608 266.675 148.015 272.666 157.002 257.687C157.002 257.687 162.566 275.328 152.295 283.413C152.295 283.366 139.455 287.218 132.608 266.675Z" fill="black"/>
<path d="M158.813 101.515C155.534 100.689 152.663 99.2892 150.976 96.1607C150.801 97.8255 151.965 98.7499 153.056 99.9054C149.273 101.189 145.464 101.968 141.647 101.908C137.046 101.84 132.531 100.881 128.55 98.3647C129.038 97.6415 129.505 96.9952 129.92 96.319C130.07 96.0745 130.149 95.7928 130.147 95.5059C130.088 95.2559 129.985 95.0183 129.843 94.804C129.676 94.9623 129.441 95.0907 129.355 95.2876C128.324 97.6714 126.436 98.8526 123.937 99.195C123.509 99.2507 123.081 99.2977 122.683 99.3491L122.653 99.6915C122.954 99.8382 123.276 99.9365 123.607 99.9825C124.776 99.9354 125.936 99.8027 127.104 99.7471C129.184 99.6487 131.247 103.505 132.402 104.908C134.807 107.823 136.524 117.611 142.361 113.845C144.698 112.334 145.49 108.795 147.214 106.689C149.11 104.374 151.366 101.866 154.464 101.313C154.844 101.272 155.228 101.296 155.599 101.386C156.382 101.536 157.152 101.741 157.935 101.883C158.2 101.889 158.465 101.86 158.723 101.797L158.813 101.515Z" fill="black"/>
<path d="M156.775 86.4157C154.82 86.5312 152.752 84.8321 151.939 82.3884L149.406 83.6723L149.226 83.4412C149.527 83.0623 149.858 82.7074 150.215 82.3798C152.483 80.561 155.123 80.424 157.858 80.7321C162.138 81.2158 165.057 83.5183 166.743 87.4385C167.102 88.2688 167.09 88.4657 166.696 88.9963C165.699 86.4285 164.231 84.2501 161.727 82.8078C161.282 85.0205 159.57 86.2487 156.775 86.4157ZM155.064 83.8221C155.162 83.8564 155.62 83.2444 155.573 83.1802C155.33 82.8346 155.009 82.5515 154.636 82.3542C154.52 82.2943 154.208 82.6666 153.964 82.8378V83.193C154.308 83.4462 154.682 83.6573 155.076 83.8221H155.064Z" fill="black"/>
<path d="M126.329 83.6723C124.262 82.9661 122.619 81.832 121.917 79.6408C119.537 80.2485 117.718 81.6865 116.036 83.3556C116.323 81.939 117.226 81.0103 118.335 80.2742C120.546 78.8153 123.15 78.0685 125.799 78.1343C127.107 78.1137 128.401 78.4152 129.566 79.0123C130.731 79.6093 131.732 80.4836 132.479 81.5581C132.817 82.0246 133.155 82.5253 132.775 83.1887L131.786 81.6651C130.297 83.7065 128.354 84.357 126.329 83.6723ZM124.617 80.4924C124.616 80.6291 124.645 80.7644 124.702 80.8889C124.758 81.0134 124.841 81.1242 124.944 81.2137C125.047 81.3032 125.169 81.3692 125.3 81.4072C125.431 81.4453 125.569 81.4544 125.704 81.434C126.201 81.3783 126.612 81.1173 126.5 80.5438C126.372 79.8719 125.841 79.6878 124.985 79.6878C124.878 79.8975 124.592 80.21 124.617 80.5053V80.4924Z" fill="black"/>
<path d="M133.588 92.1034C133.716 91.6754 133.874 91.2475 133.973 90.8195C134.974 86.3215 140.012 86.1417 142.597 88.0633C143.658 88.8465 143.859 90.5627 143.144 91.9151C142.952 92.2789 142.716 92.6255 142.502 92.9808L142.712 93.2247C143.105 92.9921 143.467 92.7118 143.791 92.3902C144.933 90.965 144.647 88.4399 143.213 87.2544C140.94 85.3671 136.793 85.4869 134.653 87.5369C133.369 88.7823 133.036 90.3316 133.31 92.0264L133.588 92.1034Z" fill="black"/>
<path d="M149.872 88.2302C152.671 88.885 155.479 89.4928 158.265 90.2032C162.427 91.235 166.182 93.4958 169.041 96.6913C169.093 96.747 169.174 96.7812 169.414 96.6913C169.142 96.2144 168.836 95.758 168.498 95.3261C166.728 93.2874 164.518 91.6776 162.035 90.6183C158.368 89.0884 154.452 88.24 150.48 88.1147C150.287 88.1147 150.09 88.1147 149.894 88.1147L149.872 88.2302Z" fill="black"/>
<path d="M132.766 86.1845C131.302 84.8492 119.109 85.2301 116.567 86.6425L132.766 86.1845Z" fill="black"/>
<path d="M165.472 79.4567C163.525 76.003 155.32 74.7875 153.262 77.6935C155.339 77.0603 157.517 76.8236 159.681 76.9959C161.864 77.1928 163.649 78.3654 165.472 79.4567Z" fill="black"/>
<path d="M133.168 76.0629C132.877 75.8018 132.633 75.4338 132.312 75.2925C128.846 73.8289 125.336 73.4779 121.788 75.0272C121.528 75.1394 121.317 75.3415 121.194 75.5964C121.504 75.5781 121.813 75.5381 122.118 75.4766C125.272 74.6206 128.413 74.5136 131.533 75.6306C132.038 75.8104 132.513 76.0586 133.001 76.2726L133.168 76.0629Z" fill="black"/>
<path d="M153.972 83.193C154.314 83.4455 154.685 83.6567 155.076 83.8221C155.175 83.8563 155.633 83.2443 155.586 83.1801C155.343 82.8346 155.022 82.5515 154.648 82.3541C154.533 82.2942 154.22 82.6666 153.977 82.8378L153.972 83.193Z" fill="white"/>
<path d="M124.985 79.675C124.878 79.8976 124.592 80.21 124.617 80.4925C124.616 80.6291 124.645 80.7644 124.702 80.8889C124.758 81.0134 124.841 81.1242 124.944 81.2137C125.047 81.3032 125.169 81.3692 125.3 81.4073C125.431 81.4453 125.569 81.4544 125.704 81.434C126.201 81.3784 126.612 81.1173 126.5 80.5438C126.372 79.8719 125.841 79.6879 124.985 79.675Z" fill="white"/>
<path d="M163.576 83.8349C163.665 84.6137 163.5 85.4003 163.105 86.0775C162.677 86.755 162.058 87.2899 161.325 87.6139C159.69 88.2984 157.898 88.5177 156.146 88.2474C154.612 88.0655 153.189 87.3541 152.123 86.2359C151.396 85.4698 150.411 83.8563 151.336 82.872C152.136 82.016 153.647 82.2899 154.661 82.444C154.71 82.4572 154.76 82.4608 154.81 82.4545C154.859 82.4482 154.907 82.4322 154.951 82.4073C154.994 82.3825 155.033 82.3493 155.063 82.3097C155.094 82.2701 155.117 82.2248 155.13 82.1765C155.143 82.1282 155.147 82.0777 155.14 82.028C155.134 81.9783 155.118 81.9303 155.093 81.8868C155.068 81.8433 155.035 81.8051 154.996 81.7744C154.956 81.7437 154.911 81.7211 154.862 81.7079C153.711 81.2799 152.072 81.2457 151.011 81.9647C149.727 82.8591 149.945 84.6481 150.685 85.8378C151.704 87.4002 153.291 88.504 155.111 88.915C157.16 89.362 159.297 89.1709 161.235 88.3672C162.823 87.6567 164.659 85.6367 163.764 83.7622C163.753 83.7398 163.734 83.7222 163.711 83.712C163.687 83.7019 163.662 83.6999 163.637 83.7064C163.613 83.7128 163.591 83.7274 163.576 83.7476C163.561 83.7679 163.554 83.7926 163.555 83.8178L163.576 83.8349Z" fill="black"/>
<path d="M132.834 82.6452C131.688 85.3329 127.849 85.8935 125.336 85.2901C123.985 84.9702 122.744 84.295 121.741 83.3342C120.779 82.3472 120.048 81.1587 119.601 79.8548C119.576 79.7617 119.514 79.6826 119.431 79.6348C119.347 79.5871 119.247 79.5746 119.154 79.6001C119.061 79.6257 118.982 79.6871 118.934 79.771C118.887 79.8549 118.874 79.9543 118.9 80.0474C119.298 81.5739 120.14 82.9483 121.318 83.9976C122.477 85.0933 123.924 85.8356 125.49 86.1375C128.058 86.604 132.535 85.9192 132.954 82.688C132.954 82.6324 132.864 82.6024 132.839 82.658L132.834 82.6452Z" fill="black"/>
<path d="M146.705 253.917C147.133 254.884 148.396 255.629 149.303 256.108C149.26 255.791 149.222 255.475 149.179 255.158C148.576 255.876 147.906 256.534 147.176 257.122L147.976 257.225C147.796 257.05 148.344 256.177 148.404 255.98C148.496 255.721 148.518 255.443 148.469 255.174C148.419 254.904 148.3 254.652 148.122 254.443C148.05 254.373 147.963 254.319 147.868 254.287C147.773 254.255 147.671 254.245 147.572 254.257C147.472 254.27 147.376 254.306 147.292 254.361C147.208 254.416 147.138 254.489 147.086 254.576C146.513 255.5 146.064 256.496 145.751 257.537C145.726 257.669 145.748 257.806 145.813 257.923C145.877 258.041 145.98 258.132 146.105 258.183C146.229 258.233 146.367 258.239 146.495 258.199C146.623 258.16 146.734 258.077 146.808 257.965C147.369 257.109 147.732 256.117 148.224 255.226L147.189 255.359C147.257 255.449 147.013 255.856 146.962 255.954C146.832 256.194 146.732 256.45 146.667 256.716C146.596 256.965 146.594 257.228 146.659 257.479C146.725 257.729 146.856 257.958 147.039 258.141C147.165 258.261 147.332 258.328 147.505 258.328C147.679 258.328 147.846 258.261 147.972 258.141C148.799 257.501 149.521 256.736 150.112 255.873C150.158 255.793 150.185 255.703 150.191 255.612C150.197 255.52 150.182 255.428 150.148 255.342C150.113 255.257 150.059 255.181 149.991 255.119C149.922 255.057 149.841 255.012 149.752 254.987C149.216 254.827 148.697 254.613 148.203 254.349C147.79 254.08 147.361 253.836 146.919 253.617C146.744 253.549 146.641 253.767 146.701 253.9L146.705 253.917Z" fill="white"/>
<path d="M114.633 266.533C114.984 266.713 115.275 266.961 115.647 267.103C116.009 267.255 116.38 267.382 116.76 267.484C117.572 267.692 118.404 267.811 119.242 267.839C120.893 267.885 122.545 267.793 124.181 267.565C125.824 267.36 127.48 267.064 128.859 266.076C129.986 265.255 130.907 264.182 131.546 262.943C132.316 261.524 132.843 259.986 133.104 258.393C133.157 258.183 133.133 257.96 133.038 257.765C132.942 257.57 132.781 257.415 132.582 257.328C132.382 257.241 132.157 257.231 131.95 257.299C131.742 257.367 131.567 257.508 131.456 257.696C130.254 260.456 129.522 263.97 126.321 265.121C125.386 265.437 124.425 265.67 123.449 265.819C122.52 265.977 121.596 266.165 120.663 266.285C119.722 266.404 118.774 266.457 117.825 266.444C117.316 266.439 116.807 266.401 116.302 266.332C115.805 266.286 115.313 266.192 114.834 266.054C114.77 266.037 114.702 266.044 114.642 266.073C114.583 266.102 114.536 266.152 114.51 266.213C114.485 266.274 114.482 266.342 114.503 266.405C114.524 266.468 114.567 266.521 114.624 266.555L114.633 266.533Z" fill="white"/>
<path d="M146.106 247.476C146.688 248.644 148.246 249.282 149.406 249.641C151.043 250.155 152.728 250.506 154.434 250.69C157.503 251.007 160.687 250.373 162.96 248.165C164.147 247.065 164.895 245.571 165.065 243.962C165.155 242.845 163.353 242.61 163.114 243.697C162.827 245.069 162.07 246.298 160.974 247.172C159.782 248.096 158.365 248.687 156.87 248.884C154.986 249.115 153.077 249.042 151.216 248.666C150.399 248.529 149.581 248.4 148.777 248.195C148.4 248.112 148.032 247.995 147.677 247.844C147.292 247.632 146.934 247.375 146.611 247.078C146.554 247.025 146.48 246.994 146.402 246.991C146.324 246.988 146.248 247.012 146.186 247.06C146.125 247.108 146.082 247.176 146.066 247.252C146.05 247.328 146.061 247.407 146.097 247.476H146.106Z" fill="white"/>
<path d="M142.734 281.384C143.606 281.808 144.435 282.314 145.212 282.895C146.003 283.516 147.06 282.544 146.341 281.765C146.187 281.596 145.987 281.474 145.765 281.415C145.544 281.356 145.31 281.362 145.092 281.431C144.351 281.637 144.236 282.895 145.092 283.036C147.707 283.464 150.852 284.419 153.223 282.749C154.256 281.948 155.128 280.957 155.791 279.831C156.583 278.645 157.383 277.263 157.015 275.795C156.775 274.819 155.277 275.037 155.273 276.035C155.273 277.194 154.704 278.085 154.079 279.03C153.514 279.886 152.902 280.789 152.025 281.341C150.026 282.591 147.458 281.555 145.314 281.41L145.532 283.045H145.374C145.644 282.583 145.913 282.12 146.179 281.658C145.161 281.124 144.029 280.843 142.879 280.841C142.816 280.844 142.756 280.866 142.708 280.906C142.659 280.945 142.624 280.999 142.608 281.059C142.592 281.12 142.595 281.184 142.618 281.242C142.64 281.301 142.681 281.35 142.734 281.384Z" fill="white"/>
<path d="M114.205 265.429L118.403 265.793L118.519 265.511C117.526 265.083 116.627 264.586 116.238 263.285C116.458 263.382 116.666 263.504 116.858 263.649C118.215 265.164 119.944 265.361 121.694 264.736C124.765 263.705 127.581 262.032 129.954 259.827C130.682 259.134 131.17 258.188 131.752 257.349C131.927 257.062 132.087 256.767 132.231 256.463C132.929 257.935 129.368 263.208 126.667 264.869C123.089 267.103 115.775 267.415 114.205 265.429Z" fill="black"/>
<path d="M121.831 243.71C116.516 249.59 112.416 256.147 110.135 263.773C109.91 259.784 111 255.832 113.237 252.522C115.525 249.072 118.441 246.083 121.831 243.71Z" fill="black"/>
<path d="M122.289 177.087C122.289 177.087 139.716 185.445 163.803 174.544C163.85 174.232 163.85 192.635 141.595 198.199C141.595 198.199 123.526 192.348 122.289 177.087Z" fill="black"/>
<path d="M161.898 242.379C162.613 243.076 162.352 243.859 162.189 244.792C163.336 244.099 163.392 242.969 163.692 241.959C164.308 243.179 163.88 244.227 163.216 245.195C162.058 246.808 160.405 248.001 158.509 248.593C154.345 250.052 150.416 249.32 146.662 247.215C146.477 247.09 146.305 246.947 146.149 246.787L146.252 246.603C146.457 246.671 146.679 246.731 146.868 246.808C151.374 248.52 155.783 248.178 160.084 246.119C161.265 245.55 161.654 244.407 161.851 243.183C161.885 242.914 161.881 242.644 161.898 242.379Z" fill="black"/>
<path d="M163.358 239.203C158.319 236.341 152.652 234.764 146.859 234.611L146.782 234.393C147.013 234.238 147.262 234.111 147.523 234.016C151.244 233.144 155.152 233.584 158.586 235.261C159.939 235.979 161.228 236.813 162.438 237.752C162.852 238.141 163.214 238.581 163.516 239.062L163.358 239.203Z" fill="black"/>
<path d="M141.771 254.88C141.458 253.116 143.144 251.456 144.903 251.995C145.298 252.117 145.659 252.33 145.956 252.617C146.254 252.904 146.479 253.257 146.615 253.647C146.966 254.739 146.495 255.92 146.063 256.917C145.918 257.255 146.414 257.546 146.564 257.208C147.078 256.014 147.604 254.64 147.125 253.356C146.933 252.878 146.632 252.452 146.244 252.112C145.857 251.773 145.394 251.531 144.895 251.405C142.721 250.857 140.825 252.928 141.197 255.042C141.266 255.41 141.822 255.252 141.758 254.888L141.771 254.88Z" fill="black"/>
<path d="M115.797 162.719C118.664 159.57 122.965 157.888 127.194 158.829C127.703 158.945 127.921 158.153 127.408 158.046C123.051 157.151 118.099 158.782 115.484 162.476C115.352 162.66 115.647 162.903 115.797 162.719Z" fill="black"/>
<path d="M151.297 156.788C154.469 154.554 158.282 154.836 161.791 156.056C162.301 156.231 162.519 155.427 162.014 155.251C158.487 154.053 153.976 153.685 151.092 156.535C150.959 156.664 151.139 156.912 151.297 156.801V156.788Z" fill="black"/>
<path d="M159.36 178.67H159.699C159.71 178.667 159.72 178.66 159.728 178.65C159.735 178.64 159.739 178.629 159.739 178.617C159.739 178.605 159.735 178.593 159.728 178.583C159.72 178.573 159.71 178.566 159.699 178.563H159.36C159.349 178.566 159.339 178.573 159.331 178.583C159.324 178.593 159.32 178.605 159.32 178.617C159.32 178.629 159.324 178.64 159.331 178.65C159.339 178.66 159.349 178.667 159.36 178.67Z" fill="#CECDCE"/>
<path d="M150.583 168.476C150.257 168.356 150.544 168.352 150.664 168.227C150.761 168.124 150.843 168.007 150.908 167.881C151.1 167.538 151.297 167.205 151.511 166.875C151.944 166.21 152.472 165.612 153.078 165.099C153.72 164.555 152.757 163.567 152.145 164.166C151.387 164.884 150.778 165.743 150.352 166.695C150.197 167.068 149.924 167.598 150.005 168.009C150.086 168.42 150.206 168.463 150.566 168.544C150.57 168.544 150.574 168.543 150.579 168.542C150.583 168.54 150.587 168.537 150.59 168.534C150.593 168.531 150.595 168.527 150.597 168.523C150.599 168.519 150.6 168.514 150.6 168.51C150.6 168.505 150.599 168.501 150.597 168.497C150.595 168.493 150.593 168.489 150.59 168.486C150.587 168.483 150.583 168.48 150.579 168.478C150.574 168.477 150.57 168.476 150.566 168.476H150.583Z" fill="#CECDCE"/>
<path d="M123.479 178.469C124.016 178.861 124.576 179.219 125.157 179.543C125.808 179.864 126.477 180.15 127.16 180.399C128.416 180.881 129.703 181.28 131.011 181.593C133.668 182.229 136.38 182.606 139.109 182.719C144.598 182.955 150.084 182.162 155.282 180.382C158.188 179.383 160.977 178.073 163.602 176.475C164.732 175.786 163.696 174.005 162.566 174.698C153.617 180.207 142.665 182.034 132.364 180.112C130.926 179.847 129.501 179.517 128.084 179.137C127.378 178.948 126.68 178.734 125.978 178.537C125.276 178.341 124.446 178.204 123.676 178.02C123.624 178.013 123.571 178.023 123.525 178.049C123.479 178.075 123.443 178.115 123.422 178.163C123.401 178.211 123.396 178.265 123.408 178.316C123.419 178.367 123.447 178.414 123.488 178.448L123.479 178.469Z" fill="white"/>
<path d="M127.078 188.942C128.141 190.67 129.555 192.156 131.23 193.303C133.143 194.569 135.229 195.555 137.422 196.23C139.939 197.03 142.789 197.544 145.473 196.923C148.04 196.328 150.253 194.972 152.32 193.718C154.64 192.313 156.826 190.698 158.851 188.894C158.946 188.83 159.023 188.744 159.076 188.642C159.13 188.541 159.158 188.429 159.158 188.315C159.158 188.2 159.13 188.088 159.076 187.987C159.023 187.886 158.946 187.799 158.851 187.735C158.626 187.581 158.36 187.499 158.087 187.499C157.815 187.499 157.548 187.581 157.323 187.735C155.599 189.223 153.776 190.593 151.867 191.835C149.986 193.13 147.965 194.207 145.841 195.044C143.517 195.9 141.056 195.515 138.736 194.878C136.731 194.31 134.803 193.496 132.997 192.455C132.017 191.899 131.127 191.265 130.215 190.649C129.303 190.045 128.444 189.363 127.647 188.612C127.382 188.359 126.928 188.685 127.091 188.942H127.078Z" fill="white"/>
<path d="M152.607 166.854C152.51 166.862 152.413 166.85 152.32 166.819L152.795 167.675C153.01 167.168 153.327 166.71 153.727 166.33C154.127 165.951 154.601 165.659 155.119 165.471C156.444 165.049 157.876 165.111 159.159 165.647C159.249 164.971 159.339 164.294 159.433 163.618C158.151 163.526 156.863 163.699 155.651 164.126C154.438 164.553 153.326 165.225 152.384 166.1L154.135 167.119C154.563 166.07 155.928 165.565 156.985 165.702C157.699 165.812 158.372 166.107 158.937 166.558C159.43 167.031 159.893 167.534 160.323 168.065C160.469 168.223 160.645 168.35 160.841 168.438C161.037 168.526 161.249 168.574 161.464 168.579C161.679 168.584 161.892 168.546 162.092 168.466C162.292 168.386 162.473 168.267 162.626 168.116C162.91 167.784 163.076 167.367 163.096 166.931C163.116 166.494 162.99 166.063 162.737 165.707C161.915 164.354 160.323 162.737 158.577 163.434C158.315 163.515 158.094 163.693 157.959 163.932C157.825 164.171 157.787 164.452 157.854 164.718C157.93 164.983 158.107 165.208 158.347 165.343C158.588 165.479 158.872 165.514 159.138 165.441C159.626 165.317 159.994 165.621 160.31 165.968C160.48 166.16 160.638 166.363 160.781 166.575C160.816 166.618 160.957 166.914 161.004 166.922V166.969C160.995 166.882 161.013 166.794 161.056 166.717C161.099 166.641 161.164 166.579 161.243 166.541H161.804C161.62 166.516 161.239 165.869 161.055 165.685C160.691 165.304 160.288 164.961 159.853 164.662C158.968 164.046 157.932 163.684 156.857 163.614C155.861 163.562 154.874 163.819 154.031 164.351C153.188 164.883 152.531 165.663 152.149 166.584C151.721 167.62 153.206 168.249 153.899 167.603C154.646 166.919 155.525 166.394 156.482 166.062C157.438 165.729 158.453 165.595 159.463 165.668C160.679 165.741 160.786 164.003 159.737 163.64C157.961 163.028 155.975 162.929 154.255 163.751C153.542 164.072 152.92 164.564 152.442 165.183C151.965 165.802 151.646 166.528 151.516 167.299C151.349 168.343 152.945 168.394 152.847 167.478C152.821 167.346 152.821 167.209 152.847 167.076C152.898 166.939 152.748 166.828 152.624 166.858L152.607 166.854Z" fill="white"/>
<path d="M117.436 171.437C118.146 169.648 119.918 167.949 121.836 167.585C123.346 167.294 125.298 168.082 125.867 169.593L127.849 168.758C127.361 167.675 126.809 166.563 125.871 165.797C125.391 165.376 124.815 165.078 124.194 164.929C123.573 164.78 122.925 164.784 122.306 164.941C121.107 165.235 119.94 165.648 118.823 166.173C117.834 166.661 117.004 167.534 117.034 168.698C117.059 169.529 118.253 170.23 118.861 169.451C119.717 168.356 121.087 166.905 122.644 167.453C123.436 167.731 124.138 168.394 124.784 168.887C125.589 169.486 126.398 170.076 127.228 170.641C128.144 171.258 129.291 169.785 128.422 169.092C127.553 168.399 126.535 167.607 125.572 166.879C124.716 166.229 123.834 165.497 122.734 165.304C120.513 164.919 118.634 166.28 117.329 167.941L119.156 168.698C119.156 168.296 119.833 168.035 120.205 167.894C121.073 167.555 121.96 167.269 122.863 167.038C124.545 166.635 125.405 168.66 125.961 169.875C126.466 170.979 128.379 170.192 127.943 169.019C127.443 167.78 126.522 166.757 125.342 166.131C124.162 165.505 122.799 165.315 121.493 165.595C120.159 165.893 118.973 166.65 118.142 167.735C117.727 168.253 117.392 168.83 117.149 169.447C116.935 170.071 116.803 170.72 116.755 171.377C116.708 171.805 117.29 171.805 117.419 171.467L117.436 171.437Z" fill="white"/>
<path d="M164.98 173.402C164.445 180.095 161.731 185.813 157.148 190.593C153.724 194.163 149.684 196.85 144.818 198.113C143.418 198.477 141.976 198.836 140.538 198.477C139.546 198.155 138.579 197.76 137.645 197.296C137.559 197.261 137.482 197.219 137.397 197.193C134.401 196.247 131.974 194.347 129.603 192.387C125.324 188.839 122.584 184.281 121.044 178.97C120.864 178.353 120.791 177.711 120.654 177.001C120.315 177.119 119.967 177.212 119.614 177.279C119.413 177.305 119.079 177.236 119.011 177.104C118.942 176.971 119.058 176.676 119.109 176.449C119.139 176.389 119.191 176.343 119.255 176.32C120.303 175.893 121.309 175.37 122.473 175.353C122.63 175.377 122.783 175.417 122.931 175.473L122.64 176.243C123.224 176.526 123.824 176.773 124.438 176.984C127.125 177.758 129.8 178.606 132.531 179.205C135.526 179.856 138.569 179.749 141.582 179.59C144.109 179.424 146.619 179.071 149.093 178.533C151.922 177.951 154.73 177.249 157.486 176.393C159.669 175.754 161.736 174.771 163.61 173.483C163.73 173.397 163.828 173.286 163.987 173.145C163.191 172.648 162.211 172.499 161.654 171.386C162.128 171.412 162.598 171.484 163.058 171.6C164.342 172.066 165.592 172.576 166.841 173.098C167.008 173.166 167.103 173.406 167.231 173.564C167.034 173.629 166.829 173.77 166.649 173.744C166.075 173.65 165.493 173.504 164.98 173.402ZM126.034 186.241C126.101 186.379 126.175 186.513 126.256 186.643C127.522 188.533 129.07 190.219 130.844 191.642C133.369 193.666 135.924 195.648 139.13 196.495C140.414 196.838 141.724 197.407 143.102 197.043C150.287 195.169 155.787 191 159.758 184.764C159.816 184.643 159.864 184.517 159.9 184.388C158.359 184.414 156.878 184.414 155.509 185.128C155.288 185.233 155.053 185.305 154.811 185.342C153.31 185.628 151.807 185.899 150.3 186.155C150.178 186.162 150.056 186.153 149.936 186.13L149.898 185.937C150.732 185.689 151.554 185.381 152.406 185.21C154.499 184.782 156.536 184.187 158.111 182.689C158.879 181.931 159.509 181.044 159.972 180.07C160.542 178.774 161.045 177.449 161.479 176.102C161.141 176.239 161.012 176.278 160.897 176.338C158.443 177.539 155.858 178.449 153.193 179.051C148.229 180.228 143.264 181.259 138.103 180.968C134.679 180.771 131.255 180.54 127.977 179.453C126.693 179.025 125.409 178.666 123.945 178.221C124.142 178.709 124.274 179.222 124.339 179.744C124.339 180.376 124.573 180.986 124.994 181.456C125.529 182.162 126.043 182.894 126.612 183.596C126.856 183.912 127.167 184.169 127.523 184.349C128.395 184.794 129.318 185.13 130.271 185.351C132.261 185.68 134.281 185.843 136.293 186.061C137.148 186.155 138.043 186.228 138.92 186.309C138.32 186.567 137.677 186.712 137.024 186.737C133.888 186.806 130.774 186.189 127.9 184.931C127.832 184.89 127.756 184.863 127.677 184.851C127.598 184.839 127.518 184.842 127.44 184.861C127.363 184.88 127.29 184.914 127.225 184.962C127.161 185.009 127.107 185.069 127.065 185.137C126.787 185.466 126.458 185.787 126.017 186.241H126.034Z" fill="black"/>
<path d="M113.537 173.526C113.76 173.235 113.845 173.021 114.004 172.935C115.198 172.31 116.409 171.715 117.603 171.095C117.787 171.001 118.061 170.817 118.061 170.667C118.061 169.186 119.075 168.467 120.201 167.962C121.215 167.508 122.281 167.046 123.479 167.316C124.197 167.449 124.876 167.745 125.463 168.179C126.05 168.614 126.531 169.176 126.869 169.824C127.352 169.79 127.904 169.725 128.452 169.73C129 169.734 129.483 169.82 130.001 169.871L130.027 170.064C129.59 170.297 129.136 170.499 128.67 170.667C124.566 171.855 120.364 172.672 116.113 173.106C115.33 173.196 114.556 173.376 113.537 173.526ZM124.313 169.323V169.053C124.044 168.887 123.774 168.626 123.492 168.587C123.308 168.587 122.901 169.015 122.944 169.135C122.997 169.285 123.082 169.421 123.193 169.536C123.304 169.65 123.438 169.74 123.586 169.798C123.787 169.841 124.07 169.499 124.313 169.323Z" fill="black"/>
<path d="M166.589 168.852C166.239 168.959 165.879 169.029 165.515 169.062C161.201 169.002 156.882 168.942 152.568 168.827C151.707 168.754 150.855 168.595 150.026 168.352C149.859 168.313 149.739 168.069 149.598 167.924C149.774 167.821 149.945 167.637 150.12 167.633C151.118 167.607 152.115 167.633 153.116 167.633C153.36 167.054 153.73 166.537 154.199 166.119C154.669 165.701 155.225 165.394 155.829 165.219C156.432 165.044 157.067 165.005 157.686 165.107C158.306 165.208 158.896 165.447 159.412 165.805C160.032 166.263 160.469 166.965 161.021 167.517C161.18 167.653 161.378 167.735 161.586 167.752C162.977 167.936 164.368 168.095 165.754 168.287C166.059 168.36 166.355 168.462 166.64 168.591L166.589 168.852ZM158.355 166.011C158.085 166.439 157.824 166.657 157.803 166.914C157.803 167.068 158.231 167.431 158.325 167.389C158.601 167.27 158.82 167.049 158.937 166.772C158.984 166.644 158.654 166.387 158.355 166.011Z" fill="black"/>
<path d="M149.389 166.383C149.508 166.186 149.611 165.981 149.748 165.797C150.357 164.997 151.118 164.326 151.988 163.823C152.858 163.319 153.819 162.994 154.815 162.865C157.657 162.386 160.452 162.501 163.105 163.721C163.783 164.083 164.4 164.55 164.933 165.103C163.649 164.765 162.39 164.406 161.111 164.085C159.098 163.566 156.997 163.49 154.952 163.862C153.379 164.086 151.91 164.78 150.737 165.852C150.384 166.143 150.006 166.402 149.607 166.627L149.389 166.383Z" fill="black"/>
<path d="M114.838 169.006C114.773 168.877 114.734 168.737 114.724 168.593C114.713 168.448 114.732 168.304 114.779 168.167C114.826 168.03 114.899 167.904 114.995 167.796C115.091 167.688 115.208 167.6 115.339 167.538C116.242 166.938 117.199 166.422 118.198 165.998C120.41 165.142 122.632 164.239 125.084 164.363C125.848 164.345 126.605 164.52 127.284 164.872V165.06C126.398 165.146 125.508 165.206 124.626 165.313C121.494 165.766 118.469 166.781 115.698 168.309C115.389 168.512 115.101 168.746 114.838 169.006Z" fill="black"/>
<path d="M144.488 170.705C144.304 170.594 144.116 170.491 143.94 170.372C142.331 169.293 140.743 168.172 138.706 168.082C138.507 168.071 138.307 168.071 138.107 168.082C137.029 168.159 136.661 168.51 136.532 169.597C136.485 170.025 136.468 170.453 136.395 170.855C136.337 171.004 136.251 171.14 136.143 171.258C136.04 171.138 135.856 171.022 135.852 170.898C135.796 170.146 135.813 169.391 135.903 168.643C136.061 167.765 136.759 167.303 137.615 167.183C140.106 166.832 142.139 167.744 143.851 169.499C144.15 169.802 144.398 170.158 144.672 170.487L144.488 170.705Z" fill="black"/>
<path d="M124.313 169.323C124.07 169.499 123.787 169.841 123.586 169.798C123.438 169.74 123.304 169.65 123.193 169.536C123.082 169.421 122.997 169.285 122.944 169.135C122.901 169.028 123.308 168.574 123.492 168.587C123.774 168.587 124.044 168.887 124.313 169.053V169.323Z" fill="white"/>
<path d="M158.355 166.011C158.654 166.387 158.984 166.644 158.937 166.772C158.82 167.049 158.601 167.27 158.325 167.389C158.222 167.431 157.79 167.068 157.803 166.914C157.824 166.657 158.085 166.421 158.355 166.011Z" fill="white"/>
<path d="M116.773 172.302C116.866 171.243 117.039 170.193 117.29 169.16C117.466 168.489 117.765 166.931 118.72 167.051C119.148 167.102 119.216 166.417 118.818 166.336C117.706 166.118 117.106 167.265 116.862 168.172C116.466 169.519 116.386 170.94 116.627 172.323C116.627 172.409 116.764 172.379 116.773 172.323V172.302Z" fill="black"/>
<path d="M124.853 165.052C125.743 165.761 126.527 166.594 127.181 167.526C127.775 168.464 128.281 169.455 128.692 170.487C128.884 170.915 129.513 170.598 129.423 170.179C128.927 167.902 127.023 165.899 125.037 164.808C124.891 164.731 124.711 164.936 124.853 165.052Z" fill="black"/>
<path d="M153.005 163.657C151.875 164.941 151.08 166.485 150.69 168.15C150.6 168.6 151.276 168.792 151.383 168.343C151.718 166.738 152.34 165.207 153.219 163.824C153.305 163.695 153.108 163.537 153.005 163.657Z" fill="black"/>
<path d="M160.49 163.575C161.097 164.354 161.621 165.193 162.057 166.079C162.443 166.968 162.748 167.891 162.968 168.835C163.097 169.263 163.863 169.216 163.824 168.724C163.589 166.644 162.283 164.671 160.696 163.391C160.67 163.371 160.639 163.361 160.606 163.363C160.574 163.364 160.543 163.378 160.52 163.4C160.497 163.423 160.483 163.453 160.481 163.485C160.478 163.518 160.488 163.55 160.507 163.575H160.49Z" fill="black"/>
<path d="M133.036 266.675C133.036 266.675 148.015 272.238 157.002 257.687L157.858 259.399C157.858 259.399 152.183 274.836 133.194 268.387C133.036 268.387 133.036 266.675 133.036 266.675Z" fill="white"/>
<path d="M156.382 258.184L154.58 257.687V257.482C156.493 257.383 158.487 257.653 160.144 256.258C160.182 257.075 160.041 257.187 158.149 257.97C158.368 259.592 158.577 261.222 158.808 262.844C159.527 267.552 158.684 272.063 157.464 276.54C157.218 277.419 156.901 278.278 156.519 279.107C154.413 283.742 150.411 285.292 145.481 283.618C142.56 282.64 140.047 280.717 138.338 278.153C135.77 274.447 133.292 270.047 132.291 266.983L130.609 268.01C130.823 266.812 134.255 264.633 135.595 265.014L133.506 266.191V266.414C137.129 267.559 140.994 267.707 144.694 266.842C149.804 265.703 153.215 262.13 156.382 258.184ZM133.036 267.103C133.412 267.873 133.571 268.703 134.071 269.118C134.886 269.739 135.793 270.227 136.759 270.565C139.833 271.747 143.159 272.119 146.418 271.644C148.935 271.301 151.306 270.629 153.193 268.819C155.224 266.808 156.743 264.339 157.623 261.62C158.021 260.469 157.751 259.356 157.152 258.248C151.246 266.76 144.052 270.009 133.036 267.103ZM143.478 281.919C150.155 285.839 154.969 282.968 156.579 277.639C151.892 278.153 147.48 279.253 143.478 281.936V281.919Z" fill="black"/>
<defs>
<radialGradient id="paint0_radial_1_2" cx="0" cy="0" r="1" gradientUnits="userSpaceOnUse" gradientTransform="translate(173.5 173.5) rotate(90) scale(173.5)">
<stop stop-color="#FFF3D6"/>
<stop offset="1" stop-color="#FFE39A"/>
</radialGradient>
<linearGradient id="paint1_linear_1_2" x1="77.2319" y1="123.996" x2="77.2319" y2="52.0449" gradientUnits="userSpaceOnUse">
<stop stop-color="#0F4E00"/>
<stop offset="1" stop-color="#0F4400"/>
</linearGradient>
<linearGradient id="paint2_linear_1_2" x1="78.8154" y1="210.807" x2="78.8154" y2="135.261" gradientUnits="userSpaceOnUse">
<stop stop-color="#0F4E00"/>
<stop offset="1" stop-color="#0F4400"/>
</linearGradient>
<linearGradient id="paint3_linear_1_2" x1="216.35" y1="209.754" x2="216.35" y2="136.258" gradientUnits="userSpaceOnUse">
<stop stop-color="#0F4E00"/>
<stop offset="1" stop-color="#0F4400"/>
</linearGradient>
<linearGradient id="paint4_linear_1_2" x1="78.7212" y1="296.158" x2="78.7212" y2="224.211" gradientUnits="userSpaceOnUse">
<stop stop-color="#0F4E00"/>
<stop offset="1" stop-color="#0F4400"/>
</linearGradient>
<linearGradient id="paint5_linear_1_2" x1="216.153" y1="294.446" x2="216.153" y2="222.499" gradientUnits="userSpaceOnUse">
<stop stop-color="#0F4E00"/>
<stop offset="1" stop-color="#0F4400"/>
</linearGradient>
<linearGradient id="paint6_linear_1_2" x1="271.499" y1="294.446" x2="271.499" y2="222.499" gradientUnits="userSpaceOnUse">
<stop stop-color="#0F4E00"/>
<stop offset="1" stop-color="#0F4400"/>
</linearGradient>
</defs>
</svg>
