<svg width="30" height="30" viewBox="0 0 30 30" fill="none" xmlns="http://www.w3.org/2000/svg">
<path fill-rule="evenodd" clip-rule="evenodd" d="M7.87684 19.4714C5.9729 17.8355 4.613 15.9657 3.97502 15C4.613 14.0342 5.9729 12.1645 7.87684 10.5287C9.84252 8.83981 12.2697 7.5 15 7.5C17.7304 7.5 20.1576 8.83981 22.1233 10.5287C24.0273 12.1645 25.3871 14.0342 26.0251 15C25.3871 15.9657 24.0273 17.8355 22.1233 19.4714C20.1576 21.1602 17.7304 22.5 15 22.5C12.2697 22.5 9.84252 21.1602 7.87684 19.4714ZM15 5C11.4344 5 8.44646 6.74327 6.24765 8.63244C4.04085 10.5284 2.50946 12.672 1.82984 13.7122C1.31632 14.4981 1.31632 15.5019 1.82984 16.2877C2.50946 17.328 4.04085 19.4715 6.24765 21.3676C8.44646 23.2567 11.4344 25 15 25C18.5656 25 21.5536 23.2567 23.7525 21.3676C25.9593 19.4715 27.4906 17.328 28.1702 16.2877C28.6837 15.5019 28.6837 14.4981 28.1702 13.7122C27.4906 12.672 25.9593 10.5284 23.7525 8.63244C21.5536 6.74327 18.5656 5 15 5ZM12.5 15C12.5 13.6192 13.6194 12.5 15 12.5C16.3807 12.5 17.5 13.6192 17.5 15C17.5 16.3807 16.3807 17.5 15 17.5C13.6194 17.5 12.5 16.3807 12.5 15ZM15 10C12.2386 10 10 12.2386 10 15C10 17.7614 12.2386 20 15 20C17.7615 20 20 17.7614 20 15C20 12.2386 17.7615 10 15 10Z" fill="#ffffff"/>
</svg>
